<svg width="24" height="24" viewBox="0 0 24 24" fill="none" xmlns="http://www.w3.org/2000/svg">
<path d="M12 0C5.40891 0 0 5.40891 0 12C0 18.5911 5.40891 24 12 24C18.5911 24 24 18.5911 24 12C24 5.40891 18.5911 0 12 0ZM17.469 5.53659C17.7436 5.262 18.1888 5.262 18.4634 5.53659C18.738 5.81119 18.738 6.25636 18.4634 6.53095C18.1888 6.80555 17.7436 6.80555 17.469 6.53095C17.1945 6.25636 17.1945 5.81119 17.469 5.53659ZM11.2969 3.5625C11.2969 3.17386 11.6114 2.85938 12 2.85938C12.3886 2.85938 12.7031 3.17386 12.7031 3.5625V4.96875C12.7031 5.35739 12.3886 5.67188 12 5.67188C11.6114 5.67188 11.2969 5.35739 11.2969 4.96875V3.5625ZM3.5625 12.7031C3.17386 12.7031 2.85938 12.3886 2.85938 12C2.85938 11.6114 3.17386 11.2969 3.5625 11.2969H4.96875C5.35739 11.2969 5.67188 11.6114 5.67188 12C5.67188 12.3886 5.35739 12.7031 4.96875 12.7031H3.5625ZM6.53095 18.4634C6.25636 18.738 5.81119 18.738 5.53659 18.4634C5.262 18.1888 5.262 17.7436 5.53659 17.469C5.81119 17.1944 6.25636 17.1944 6.53095 17.469C6.80555 17.7436 6.80555 18.1888 6.53095 18.4634ZM6.53095 6.53095C6.25636 6.80555 5.81119 6.80555 5.53659 6.53095C5.262 6.25636 5.262 5.81119 5.53659 5.53659C5.81119 5.262 6.25636 5.262 6.53095 5.53659C6.80555 5.81119 6.80555 6.25636 6.53095 6.53095ZM12.7031 20.4375C12.7031 20.8261 12.3886 21.1406 12 21.1406C11.6114 21.1406 11.2969 20.8261 11.2969 20.4375V19.0312C11.2969 18.6426 11.6114 18.3281 12 18.3281C12.3886 18.3281 12.7031 18.6426 12.7031 19.0312V20.4375ZM16.7159 16.7159C16.4412 16.9905 15.9962 16.9905 15.7216 16.7159L11.5028 12.4971C11.371 12.3653 11.2969 12.1868 11.2969 12V7.78125C11.2969 7.39261 11.6114 7.07812 12 7.07812C12.3886 7.07812 12.7031 7.39261 12.7031 7.78125V11.7089L16.7159 15.7216C16.9905 15.9963 16.9905 16.4412 16.7159 16.7159ZM18.4634 18.4634C18.1888 18.738 17.7436 18.738 17.469 18.4634C17.1945 18.1888 17.1945 17.7436 17.469 17.469C17.7436 17.1944 18.1888 17.1944 18.4634 17.469C18.738 17.7436 18.738 18.1888 18.4634 18.4634ZM21.1406 12C21.1406 12.3886 20.8261 12.7031 20.4375 12.7031H19.0312C18.6426 12.7031 18.3281 12.3886 18.3281 12C18.3281 11.6114 18.6426 11.2969 19.0312 11.2969H20.4375C20.8261 11.2969 21.1406 11.6114 21.1406 12Z" fill="#084D92"/>
</svg>
