<svg width="24" height="24" viewBox="0 0 24 24" fill="none" xmlns="http://www.w3.org/2000/svg">
<g clip-path="url(#clip0_9_25)">
<path d="M17.625 0C15.6866 0 14.1094 1.62408 14.1094 3.5625C14.1094 5.50092 15.6866 7.07812 17.625 7.07812C19.5634 7.07812 21.1406 5.50092 21.1406 3.5625C21.1406 1.62408 19.5634 0 17.625 0Z" fill="#054A91"/>
<path d="M12 8.48438C10.0616 8.48438 8.48438 10.0616 8.48438 12C8.48438 13.9384 10.0616 15.5156 12 15.5156C13.9384 15.5156 15.5156 13.9384 15.5156 12C15.5156 10.0616 13.9384 8.48438 12 8.48438Z" fill="#054A91"/>
<path d="M6.375 0C4.43658 0 2.85938 1.62408 2.85938 3.5625C2.85938 5.50092 4.43658 7.07812 6.375 7.07812C8.31342 7.07812 9.89062 5.50092 9.89062 3.5625C9.89062 1.62408 8.31342 0 6.375 0Z" fill="#054A91"/>
<path d="M21.2677 6.84225C20.3661 7.84271 19.0743 8.48438 17.625 8.48438C16.184 8.48438 14.8981 7.85058 13.9971 6.86011C13.7947 7.00365 13.587 7.13977 13.4018 7.30627C15.43 7.91447 16.9219 9.77663 16.9219 12C16.9219 12.7567 16.7361 13.4656 16.4295 14.1068C17.0004 14.5074 17.5179 14.9792 17.9615 15.5156H23.2969C23.6855 15.5156 24 15.2011 24 14.8125V12C24 9.86883 22.8869 7.98957 21.2677 6.84225Z" fill="#054A91"/>
<path d="M10.5982 7.30627C10.413 7.13977 10.2053 7.00365 10.0029 6.86011C9.10186 7.85058 7.81603 8.48438 6.375 8.48438C4.92567 8.48438 3.63389 7.84271 2.73234 6.84225C1.11314 7.98957 0 9.86883 0 12V14.8125C0 15.2011 0.314484 15.5156 0.703125 15.5156H6.03844C6.48211 14.9792 6.99956 14.5074 7.57041 14.1068C7.26394 13.4656 7.07813 12.7567 7.07813 12C7.07813 9.77663 8.57002 7.91447 10.5982 7.30627Z" fill="#054A91"/>
<path d="M15.6427 15.2798C15.0796 15.9046 14.353 16.3643 13.5421 16.6403L12.8156 17.6837L14.0352 20.123C14.1705 20.3935 14.1176 20.7204 13.9034 20.9346L12.4971 22.3409C12.3598 22.4782 12.1799 22.5469 12 22.5469C11.8201 22.5469 11.6402 22.4782 11.5029 22.3409L10.0966 20.9346C9.88242 20.7204 9.82955 20.3935 9.96478 20.123L11.1844 17.6837L10.4579 16.6403C9.64702 16.3643 8.92036 15.9046 8.35734 15.2798C6.73814 16.4271 5.67188 18.3063 5.67188 20.4375V23.2969C5.67188 23.6855 5.98636 24 6.375 24H17.625C18.0136 24 18.3281 23.6855 18.3281 23.2969V20.4375C18.3281 18.3063 17.2619 16.4271 15.6427 15.2798Z" fill="#054A91"/>
</g>
<defs>
<clipPath id="clip0_9_25">
<rect width="24" height="24" fill="white"/>
</clipPath>
</defs>
</svg>
