<svg width="258" height="256" viewBox="0 0 258 256" fill="none" xmlns="http://www.w3.org/2000/svg">
<path d="M207.709 90.4557C220.315 90.4557 230.534 80.2369 230.534 67.6314C230.534 55.0259 220.315 44.8071 207.709 44.8071C195.104 44.8071 184.885 55.0259 184.885 67.6314C184.885 80.2369 195.104 90.4557 207.709 90.4557Z" fill="#F4E8D8"/>
<path d="M88.4838 187.359C118.28 187.359 142.435 163.204 142.435 133.408C142.435 103.611 118.28 79.4561 88.4838 79.4561C58.6872 79.4561 34.5322 103.611 34.5322 133.408C34.5322 163.204 58.6872 187.359 88.4838 187.359Z" fill="#F4E8D8"/>
<path d="M133.456 255.024C201.817 255.024 257.235 251.414 257.235 246.962C257.235 242.509 201.817 238.899 133.456 238.899C65.0947 238.899 9.677 242.509 9.677 246.962C9.677 251.414 65.0947 255.024 133.456 255.024Z" fill="#C9B5A9"/>
<path d="M76.9907 4.9724L79.665 5.83982L76.9907 6.70662C75.9004 7.05999 75.0459 7.91448 74.6926 9.00475L73.8252 11.679L72.9578 9.00475C72.6044 7.91448 71.7499 7.05999 70.6596 6.70662L67.9854 5.83982L70.6596 4.9724C71.7499 4.61904 72.6044 3.76455 72.9578 2.67428L73.8252 0L74.6926 2.67428C75.0459 3.76455 75.9004 4.61904 76.9907 4.9724Z" fill="white"/>
<path d="M240.982 178.343L243.656 179.21L240.982 180.077C239.891 180.431 239.037 181.285 238.683 182.375L237.817 185.05L236.949 182.375C236.596 181.285 235.741 180.431 234.651 180.077L231.977 179.21L234.651 178.343C235.741 177.989 236.596 177.135 236.949 176.044L237.817 173.37L238.683 176.044C239.037 177.134 239.891 177.989 240.982 178.343Z" fill="white"/>
<path d="M9.00475 155.373L11.679 156.241L9.00475 157.108C7.91448 157.461 7.05999 158.316 6.70662 159.406L5.83921 162.081L4.9724 159.406C4.61904 158.316 3.76455 157.461 2.67427 157.108L0 156.241L2.67427 155.373C3.76455 155.02 4.61904 154.165 4.9724 153.075L5.83921 150.401L6.70662 153.075C7.05999 154.165 7.91448 155.02 9.00475 155.373Z" fill="white"/>
<path d="M129.126 74.0304L130.678 74.5339L129.126 75.0375C128.493 75.2425 127.996 75.7387 127.791 76.3716L127.287 77.9242L126.784 76.3716C126.579 75.7387 126.082 75.2425 125.449 75.0375L123.896 74.5339L125.449 74.0304C126.082 73.8253 126.578 73.3292 126.784 72.6957L127.287 71.1431L127.791 72.6957C127.996 73.3292 128.493 73.8253 129.126 74.0304Z" fill="white"/>
<path d="M34.3155 40.6129L35.8682 41.1164L34.3155 41.62C33.6827 41.825 33.1865 42.3212 32.9809 42.9541L32.4773 44.5067L31.9737 42.9541C31.7687 42.3212 31.2725 41.825 30.639 41.62L29.0864 41.1164L30.639 40.6129C31.2719 40.4079 31.7681 39.9117 31.9737 39.2782L32.4773 37.7256L32.9809 39.2782C33.1865 39.9111 33.6827 40.4072 34.3155 40.6129Z" fill="white"/>
<path d="M14.7861 141.857L16.3387 142.36L14.7861 142.864C14.1532 143.069 13.657 143.565 13.4514 144.198L12.9478 145.751L12.4442 144.198C12.2392 143.565 11.743 143.069 11.1096 142.864L9.55695 142.36L11.1096 141.857C11.7424 141.652 12.2386 141.155 12.4442 140.522L12.9478 138.969L13.4514 140.522C13.657 141.155 14.1532 141.651 14.7861 141.857Z" fill="white"/>
<path d="M215.602 180.973C215.602 180.973 210.165 181.567 208.042 182.756C205.919 183.945 204.899 187.938 208.637 187.938C212.374 187.938 218.32 187.938 220.868 187.938C223.417 187.938 222.398 182.246 221.038 180.718L215.602 180.973Z" fill="#2E344B"/>
<path d="M213.111 172.376C213.111 172.376 214.494 179.801 214.878 181.018C215.468 182.884 220.697 182.787 221.163 180.724C221.851 177.68 221.851 171.493 221.851 171.493L213.111 172.376Z" fill="#D8877B"/>
<path d="M212.153 182.91C212.034 182.695 211.88 182.492 211.7 182.325C211.512 182.151 211.302 181.997 211.087 181.858C210.86 181.712 210.597 181.533 210.317 181.552C210.134 181.564 209.942 181.742 210.019 181.944C210.051 182.029 210.083 182.108 210.143 182.177C210.179 182.219 210.22 182.258 210.259 182.297C210.296 182.333 210.339 182.364 210.38 182.396C210.387 182.401 210.402 182.411 210.412 182.418C210.406 182.414 210.403 182.412 210.39 182.403C210.436 182.434 210.479 182.473 210.522 182.508C210.691 182.648 210.853 182.797 210.997 182.963C211.028 182.998 211.055 183.035 211.087 183.07C210.98 182.952 211.113 183.105 211.132 183.13C211.185 183.213 211.246 183.29 211.294 183.377C211.319 183.422 211.342 183.467 211.364 183.514C211.37 183.527 211.372 183.531 211.374 183.533C211.39 183.574 211.406 183.615 211.427 183.653C211.448 183.693 211.468 183.733 211.49 183.772C211.543 183.868 211.625 183.927 211.714 183.983C211.902 184.101 212.138 184.015 212.253 183.842C212.445 183.551 212.306 183.186 212.153 182.91Z" fill="white"/>
<path d="M214.306 182.707C214.264 182.57 214.213 182.435 214.142 182.311C214.017 182.095 213.861 181.891 213.689 181.71C213.344 181.348 212.878 181.025 212.369 180.977C212.237 180.964 212.107 181.072 212.06 181.185C212.011 181.298 212.025 181.472 212.13 181.555C212.225 181.63 212.321 181.7 212.422 181.768C212.445 181.783 212.468 181.799 212.49 181.815C212.494 181.818 212.498 181.819 212.502 181.821C212.537 181.84 212.571 181.879 212.601 181.904C212.758 182.037 212.9 182.176 213.03 182.334C213.044 182.354 213.058 182.373 213.072 182.394C213.101 182.435 213.128 182.478 213.154 182.521C213.206 182.607 213.254 182.697 213.297 182.788C213.339 182.88 213.383 182.971 213.426 183.062C213.432 183.075 213.432 183.075 213.431 183.072C213.439 183.089 213.446 183.107 213.453 183.124C213.48 183.173 213.52 183.22 213.56 183.258C213.595 183.29 213.633 183.321 213.668 183.354C213.874 183.546 214.193 183.457 214.279 183.192C214.332 183.03 214.359 182.877 214.306 182.707Z" fill="white"/>
<path d="M220.231 184.168C220.174 183.966 220.072 183.791 219.925 183.643C219.845 183.581 219.765 183.519 219.684 183.457C219.499 183.349 219.299 183.295 219.084 183.295C218.92 183.288 218.767 183.322 218.626 183.397C218.479 183.445 218.351 183.527 218.243 183.642C218.128 183.75 218.046 183.878 217.998 184.025C217.923 184.166 217.889 184.319 217.896 184.483C217.91 184.588 217.924 184.693 217.938 184.799C217.995 185 218.096 185.175 218.243 185.323C218.323 185.385 218.404 185.447 218.484 185.509C218.669 185.617 218.87 185.67 219.084 185.671C219.248 185.677 219.4 185.643 219.542 185.569C219.689 185.521 219.817 185.439 219.924 185.323C220.04 185.215 220.122 185.088 220.17 184.941C220.244 184.799 220.278 184.647 220.272 184.483C220.258 184.378 220.245 184.273 220.231 184.168Z" fill="white"/>
<path d="M213.373 173.765C214.586 174.305 217.712 175.329 221.757 175.12C221.85 173.122 221.85 171.493 221.85 171.493L213.11 172.377C213.11 172.377 213.214 172.933 213.373 173.765Z" fill="#B44E50"/>
<path d="M194.193 180.973C194.193 180.973 188.756 181.567 186.633 182.756C184.51 183.945 183.49 187.938 187.228 187.938C190.965 187.938 196.911 187.938 199.459 187.938C202.008 187.938 200.989 182.246 199.629 180.718L194.193 180.973Z" fill="#2E344B"/>
<path d="M191.702 172.376C191.702 172.376 193.085 179.801 193.469 181.018C194.059 182.884 199.288 182.787 199.754 180.724C200.442 177.68 200.442 171.493 200.442 171.493L191.702 172.376Z" fill="#D8877B"/>
<path d="M190.744 182.91C190.625 182.695 190.471 182.492 190.291 182.325C190.103 182.151 189.893 181.997 189.678 181.858C189.451 181.712 189.188 181.533 188.908 181.552C188.725 181.564 188.533 181.742 188.609 181.944C188.641 182.029 188.673 182.108 188.733 182.177C188.769 182.219 188.811 182.258 188.85 182.297C188.887 182.333 188.929 182.364 188.97 182.396C188.977 182.401 188.992 182.411 189.002 182.418C188.997 182.414 188.993 182.412 188.98 182.403C189.026 182.434 189.069 182.473 189.112 182.508C189.282 182.648 189.444 182.797 189.588 182.963C189.619 182.998 189.646 183.035 189.677 183.07C189.571 182.952 189.703 183.105 189.723 183.13C189.775 183.213 189.836 183.29 189.885 183.377C189.91 183.422 189.932 183.467 189.954 183.514C189.96 183.527 189.962 183.531 189.964 183.533C189.981 183.574 189.996 183.615 190.016 183.653C190.038 183.693 190.058 183.733 190.08 183.772C190.133 183.868 190.215 183.927 190.304 183.983C190.492 184.101 190.727 184.015 190.843 183.842C191.036 183.551 190.897 183.186 190.744 182.91Z" fill="white"/>
<path d="M192.898 182.707C192.856 182.57 192.805 182.435 192.734 182.311C192.609 182.095 192.454 181.891 192.281 181.71C191.936 181.348 191.47 181.025 190.961 180.977C190.83 180.964 190.699 181.072 190.652 181.185C190.604 181.298 190.617 181.472 190.722 181.555C190.817 181.63 190.913 181.7 191.014 181.768C191.037 181.783 191.06 181.799 191.083 181.815C191.086 181.818 191.09 181.819 191.094 181.821C191.129 181.84 191.163 181.879 191.193 181.904C191.35 182.037 191.492 182.176 191.622 182.334C191.636 182.354 191.65 182.373 191.664 182.394C191.693 182.435 191.72 182.478 191.746 182.521C191.799 182.607 191.847 182.697 191.889 182.788C191.931 182.88 191.975 182.971 192.018 183.062C192.025 183.075 192.025 183.075 192.023 183.072C192.031 183.089 192.038 183.107 192.046 183.124C192.072 183.173 192.112 183.22 192.152 183.258C192.187 183.29 192.225 183.321 192.26 183.354C192.466 183.546 192.785 183.457 192.871 183.192C192.924 183.03 192.95 182.877 192.898 182.707Z" fill="white"/>
<path d="M198.822 184.168C198.765 183.966 198.663 183.791 198.516 183.643C198.436 183.581 198.356 183.519 198.275 183.457C198.09 183.349 197.89 183.295 197.675 183.295C197.512 183.288 197.359 183.322 197.217 183.397C197.07 183.445 196.943 183.527 196.835 183.642C196.719 183.75 196.637 183.878 196.589 184.025C196.515 184.166 196.481 184.319 196.487 184.483C196.501 184.588 196.516 184.693 196.53 184.799C196.586 185 196.688 185.175 196.835 185.323C196.915 185.385 196.995 185.447 197.076 185.509C197.261 185.617 197.461 185.67 197.675 185.671C197.839 185.677 197.992 185.643 198.133 185.569C198.281 185.521 198.408 185.439 198.516 185.323C198.631 185.215 198.713 185.088 198.761 184.941C198.836 184.799 198.87 184.647 198.864 184.483C198.85 184.378 198.836 184.273 198.822 184.168Z" fill="white"/>
<path d="M191.964 173.765C193.178 174.305 196.304 175.329 200.349 175.12C200.442 173.122 200.442 171.493 200.442 171.493L191.702 172.377C191.702 172.377 191.806 172.933 191.964 173.765Z" fill="#B44E50"/>
<path d="M218.315 113.256C219.003 115.515 221.163 121.407 221.36 128.282C221.556 135.156 222.342 168.251 222.637 173.358H212.128C212.128 173.358 205.156 148.021 204.763 128.871C204.763 128.871 202.234 144.18 201.326 150.869C200.246 158.823 201.719 173.456 201.719 173.456H190.524C190.524 173.456 186.89 149.101 188.56 136.335C190.229 123.568 193.077 112.373 193.077 112.373L218.315 113.256Z" fill="#4F6E59"/>
<path d="M219.099 115.74C218.778 114.696 218.496 113.848 218.315 113.256L205.665 112.813L203.192 113.551L203.241 116.055C203.241 116.055 210.704 118.186 219.099 115.74Z" fill="#2E344B"/>
<path d="M186.645 90.5834C186.645 90.5834 189.812 92.1299 193.163 91.8725C196.514 91.6146 192.942 89.2949 192.942 89.2949L186.645 90.5834Z" fill="#2E344B"/>
<path d="M194.206 90.8659C194.465 90.7945 193.273 95.3341 192.243 97.5436C191.6 98.9195 186.645 105.449 186.645 105.449L182.274 102.797C182.274 102.797 186.645 95.4074 187.013 94.5233C187.381 93.6393 188.265 87.2319 188.265 87.2319L192.832 86.5688L194.206 90.8659Z" fill="#D8877B"/>
<path d="M188.265 87.2317C188.265 87.2317 188.021 89.0023 187.736 90.8103C188.587 90.9913 191.919 91.7455 193.851 92.8277C194.156 91.6808 194.319 90.8344 194.206 90.8657L193.019 87.156L191.823 86.7158L188.265 87.2317Z" fill="#B44E50"/>
<path d="M211.282 74.3013C214.78 74.7845 217.579 75.889 219.199 77.5832C220.82 79.2774 221.262 95.0392 220.526 97.1748L219.691 96.7082L217.8 98.5003C217.8 98.5003 217.726 108.075 219.273 113.452C219.273 113.452 207.047 119.05 192.463 112.421C192.463 112.421 195.336 107.486 194.526 99.1633C194.397 97.8415 192.979 94.3756 193.053 91.0617C193.053 91.0617 188.781 90.2515 186.645 90.5827C186.645 90.5827 188.56 80.6761 190.327 78.3933C192.095 76.11 195.998 74.9317 197.472 74.5635C198.945 74.1954 201.67 75.0788 201.67 75.0788L207.636 74.7839L211.282 74.3013Z" fill="#6779B7"/>
<path d="M218.968 112.247C218.929 112.072 218.891 111.895 218.854 111.715C217.655 112.111 216.449 112.475 215.216 112.769C213.39 113.203 211.541 113.509 209.673 113.688C205.932 114.047 202.144 113.921 198.415 113.483C196.6 113.27 194.799 112.971 193.001 112.654C193.48 112.862 193.956 113.058 194.429 113.241C197.333 113.871 200.321 114.193 203.273 114.311C207.087 114.463 210.935 114.174 214.677 113.413C216.122 113.118 217.567 112.736 218.968 112.247Z" fill="#2E344B"/>
<path d="M176.087 103.141L202.432 124.916C203.848 126.087 205.934 125.943 207.176 124.588L207.623 124.101C208.877 122.734 208.827 120.619 207.509 119.314L183.256 95.2847L176.087 103.141Z" fill="#2E344B"/>
<path d="M207.919 53.6427C207.919 53.6427 208.605 49.0508 214.034 48.7879C219.463 48.525 221.628 52.6251 222.074 56.6913C222.522 60.7575 223.069 62.8906 224.375 63.7199C224.375 63.7199 219.111 68.1985 214.846 62.9294C210.583 57.6603 207.919 53.6427 207.919 53.6427Z" fill="#5F2A3D"/>
<path d="M211.741 49.2246C208.401 50.4275 207.919 53.6429 207.919 53.6429C207.919 53.6429 210.477 57.498 214.586 62.6046C215.329 62.4839 215.905 61.8148 216.198 60.3496C217.448 54.0868 213.389 50.4257 211.741 49.2246Z" fill="#2E344B"/>
<path d="M199.217 71.4295C195.81 69.0723 194.203 69.5038 193.519 60.6185C192.836 51.7332 206.761 44.2589 213.489 52.7841C217.72 58.1449 218.091 67.7616 211.281 70.1084C203.654 72.7365 199.217 71.4295 199.217 71.4295Z" fill="#5F2A3D"/>
<path d="M164.303 107.511C177.198 107.511 187.651 97.058 187.651 84.1631C187.651 71.2683 177.198 60.8149 164.303 60.8149C151.408 60.8149 140.955 71.2683 140.955 84.1631C140.955 97.058 151.408 107.511 164.303 107.511Z" fill="#2E344B"/>
<path d="M164.303 101.758C174.021 101.758 181.899 93.8806 181.899 84.1627C181.899 74.4448 174.021 66.5669 164.303 66.5669C154.585 66.5669 146.707 74.4448 146.707 84.1627C146.707 93.8806 154.585 101.758 164.303 101.758Z" fill="#B9CFE6"/>
<path d="M200.197 70.7832C200.197 70.7832 200.148 72.06 199.902 73.0912C199.656 74.1224 197.472 74.5644 197.472 74.5644C197.472 74.5644 198.969 78.247 202.406 78.9347L203.585 83.8942L205.254 79.1311C205.254 79.1311 209.269 78.5253 211.282 74.3021C211.282 74.3021 210.508 74.2209 209.477 73.7788C208.446 73.3368 208.495 70.3418 208.495 70.3418L200.197 70.7832Z" fill="#D8877B"/>
<path d="M179.132 108.935C178.488 106.629 179.132 105.105 179.672 104.368C180.212 103.632 180.654 104.565 180.703 104.86C180.752 105.155 180.605 107.118 180.605 107.118C180.605 107.118 180.997 105.891 181.783 104.516C182.569 103.141 183.453 102.699 183.993 103.731C183.993 103.731 184.778 103.289 185.269 104.467C185.269 104.467 186.3 104.663 186.104 106.038C186.104 106.038 186.792 106.627 186.546 107.609C186.3 108.591 185.22 109.721 184.779 111.243C184.337 112.766 180.006 112.065 179.132 108.935Z" fill="#D8877B"/>
<path d="M220.526 97.1754C219.015 97.5805 212.46 95.9602 211.613 95.4812C211.613 95.4812 212.074 95.0208 212.718 94.8921L216.696 95.9048L218.316 96.2914L219.691 96.7088L220.526 97.1754Z" fill="#2E344B"/>
<path d="M212.718 94.892C212.718 94.892 212.031 97.421 210.951 98.9428C209.87 100.465 199.804 110.752 199.264 111.194C198.724 111.636 195.189 111.489 194.158 112.127C193.127 112.765 193.961 113.453 194.747 113.404C195.532 113.355 196.858 113.551 196.858 113.551C196.858 113.551 196.024 115.024 195.532 115.515C195.041 116.006 193.569 116.742 193.028 116.889C192.488 117.037 192.586 118.264 193.224 118.216C193.224 118.216 192.586 119.345 193.912 119.787C193.912 119.787 193.617 120.523 194.894 120.621C194.894 120.621 194.943 120.965 196.318 120.867C197.693 120.769 199.411 119.001 200.148 118.265C200.884 117.529 202.161 115.221 202.504 114.975C202.848 114.729 214.142 105.449 215.86 103.485C217.579 101.52 219.69 96.7087 219.69 96.7087C219.69 96.7087 216.106 94.2043 212.718 94.892Z" fill="#D8877B"/>
<path d="M210.061 74.0001C209.878 73.9379 209.685 73.8671 209.477 73.7779C208.446 73.3358 208.495 70.3408 208.495 70.3408L204.036 70.5785L201.312 71.0131L200.102 71.9193C200.083 72.0726 200.06 72.2339 200.034 72.397C200.954 73.2312 204.424 75.8525 210.061 74.0001Z" fill="#B44E50"/>
<path d="M211.929 61.5523C211.929 61.5523 214.012 60.3179 215.323 62.3981C216.634 64.4783 214.497 66.2489 212.742 66.2483C212.742 66.2483 211.086 73.589 204.742 73.8623C198.429 74.1344 195.713 67.6691 195.201 62.8845C195.201 62.8845 198.043 61.5412 198.358 60.0015C198.673 58.4618 202.557 58.2944 204.495 55.4644C204.495 55.4644 205.991 58.2993 207.828 58.4489C209.665 58.5979 211.502 60.5026 211.929 61.5523Z" fill="#D8877B"/>
<path d="M207.828 58.4484C205.99 58.2988 204.495 55.4639 204.495 55.4639C202.557 58.2939 198.673 58.4613 198.357 60.001C198.042 61.5407 195.201 62.884 195.201 62.884C195.218 63.0447 195.238 63.2072 195.26 63.371C196.364 63.1161 198.356 61.7143 198.816 60.6616C199.331 59.4833 202.48 58.9489 204.322 56.8133C204.322 56.8133 205.684 58.9126 207.673 59.1336C209.224 59.306 210.827 60.5705 211.672 61.0722C210.989 60.0066 209.41 58.5777 207.828 58.4484Z" fill="#B44E50"/>
<path d="M214.49 62.7448C214.557 62.5798 214.401 62.405 214.287 62.3077C214.15 62.1926 214.005 62.1003 213.833 62.0473C213.52 61.9513 213.144 62.0128 212.922 62.2683C212.718 62.5035 212.678 62.8291 212.692 63.1302C212.71 63.51 212.758 63.8917 212.819 64.2666C212.852 64.4747 213.168 64.5511 213.3 64.3935C213.427 64.242 213.725 64.0419 213.897 64.258C213.969 64.3497 213.924 64.4907 213.877 64.5818C213.836 64.66 213.776 64.7265 213.734 64.8041C213.687 64.8897 213.659 64.9814 213.637 65.0756C213.608 65.203 213.722 65.3378 213.857 65.2954C214.153 65.203 214.335 64.9851 214.435 64.6945C214.531 64.4156 214.484 64.1109 214.292 63.885C214.041 63.5876 213.66 63.5525 213.33 63.6793C213.315 63.5334 213.291 63.3881 213.285 63.2404C213.277 63.0575 213.254 62.8101 213.378 62.6654C213.666 62.3293 214.291 63.2312 214.49 62.7448Z" fill="#B44E50"/>
<path d="M212.718 94.892C212.718 94.892 212.678 95.0373 212.605 95.2743C213.165 95.4522 216.576 96.0204 219.156 97.8685C219.487 97.1722 219.69 96.7087 219.69 96.7087C219.69 96.7087 216.106 94.2043 212.718 94.892Z" fill="#B44E50"/>
<path d="M197.768 115.551C197.574 115.641 197.437 115.858 197.301 116.017C197.147 116.197 196.993 116.379 196.826 116.548C196.516 116.861 196.167 117.136 195.79 117.363C195.044 117.811 194.224 118.132 193.362 118.258C193.269 118.272 193.29 118.428 193.384 118.422C194.286 118.361 195.173 118.105 195.937 117.615C196.307 117.376 196.656 117.103 196.967 116.791C197.153 116.606 197.326 116.411 197.499 116.215C197.647 116.047 197.842 115.884 197.925 115.673C197.963 115.576 197.843 115.516 197.768 115.551Z" fill="#B44E50"/>
<path d="M198.765 117.176C198.418 117.471 198.101 117.792 197.735 118.066C197.373 118.338 196.985 118.576 196.584 118.788C195.782 119.212 194.908 119.5 194.021 119.691C193.902 119.717 193.955 119.889 194.07 119.87C194.994 119.724 195.872 119.416 196.706 118.996C197.122 118.786 197.521 118.544 197.905 118.279C198.281 118.02 198.678 117.737 198.987 117.399C199.125 117.248 198.918 117.047 198.765 117.176Z" fill="#B44E50"/>
<path d="M198.777 118.582C198.478 118.679 198.237 118.937 197.981 119.114C197.704 119.307 197.417 119.485 197.12 119.643C196.823 119.801 196.517 119.943 196.203 120.066C195.881 120.192 195.54 120.279 195.221 120.412C195.129 120.45 195.124 120.624 195.247 120.608C195.583 120.564 195.926 120.437 196.24 120.314C196.564 120.186 196.88 120.042 197.187 119.879C197.493 119.716 197.792 119.538 198.078 119.343C198.343 119.162 198.696 118.962 198.843 118.669C198.866 118.626 198.829 118.565 198.777 118.582Z" fill="#B44E50"/>
<path d="M183.82 103.815C183.667 103.81 183.562 103.965 183.471 104.072C183.355 104.21 183.251 104.361 183.149 104.508C182.929 104.826 182.735 105.161 182.564 105.508C182.4 105.837 182.251 106.177 182.124 106.523C182.059 106.699 182 106.878 181.947 107.058C181.901 107.215 181.803 107.433 181.867 107.592C181.904 107.683 182.005 107.718 182.082 107.649C182.199 107.544 182.214 107.354 182.253 107.208C182.303 107.026 182.357 106.846 182.418 106.669C182.538 106.316 182.681 105.972 182.852 105.64C183.015 105.325 183.198 105.02 183.395 104.724C183.499 104.567 183.613 104.419 183.722 104.266C183.805 104.149 183.927 104.023 183.896 103.872C183.889 103.838 183.853 103.815 183.82 103.815Z" fill="#B44E50"/>
<path d="M185.162 104.646C185.008 104.646 184.905 104.77 184.803 104.871C184.681 104.992 184.569 105.122 184.463 105.258C184.256 105.526 184.082 105.816 183.935 106.122C183.78 106.446 183.646 106.786 183.548 107.132C183.496 107.319 183.448 107.507 183.405 107.696C183.362 107.879 183.299 108.074 183.299 108.263C183.299 108.35 183.425 108.39 183.467 108.309C183.546 108.159 183.578 107.986 183.626 107.825C183.675 107.659 183.727 107.494 183.782 107.331C183.9 106.981 184.021 106.631 184.18 106.298C184.316 106.013 184.476 105.738 184.664 105.484C184.759 105.357 184.862 105.236 184.973 105.121C185.073 105.017 185.231 104.922 185.259 104.773C185.271 104.71 185.232 104.647 185.162 104.646Z" fill="#B44E50"/>
<path d="M185.983 106.131C185.841 106.116 185.746 106.232 185.656 106.326C185.553 106.435 185.463 106.555 185.378 106.678C185.195 106.944 185.047 107.233 184.92 107.529C184.797 107.817 184.692 108.111 184.596 108.409C184.508 108.684 184.322 109.06 184.451 109.344C184.492 109.436 184.625 109.383 184.628 109.296C184.633 109.129 184.645 108.989 184.697 108.828C184.744 108.684 184.792 108.541 184.841 108.398C184.939 108.114 185.041 107.83 185.163 107.556C185.279 107.299 185.411 107.05 185.569 106.818C185.656 106.691 185.752 106.57 185.852 106.453C185.929 106.364 186.017 106.291 186.017 106.164C186.017 106.145 186.002 106.132 185.983 106.131Z" fill="#B44E50"/>
<path d="M194.784 82.6712C194.346 83.2062 194.155 83.9271 193.94 84.5729C193.695 85.3067 193.505 86.0596 193.343 86.8162C193.192 87.5242 193.072 88.2377 192.991 88.9573C192.918 89.608 192.711 90.4792 192.982 91.1016C193.006 91.1557 193.093 91.1496 193.118 91.1016C193.263 90.8294 193.279 90.521 193.304 90.2188C193.336 89.8445 193.37 89.4708 193.416 89.0977C193.508 88.3497 193.627 87.603 193.779 86.8648C193.926 86.1519 194.111 85.4495 194.308 84.7489C194.496 84.0785 194.809 83.4032 194.859 82.7044C194.864 82.6656 194.808 82.641 194.784 82.6712Z" fill="#2E344B"/>
<path d="M210.737 78.4535C211.384 77.7991 211.893 77.0277 212.247 76.18C212.423 75.7601 212.578 75.3212 212.641 74.8687C212.655 74.7634 212.674 74.6532 212.692 74.5412C212.583 74.5196 212.473 74.4993 212.362 74.479C212.34 74.5954 212.314 74.7111 212.275 74.825C212.134 75.2411 212.008 75.6579 211.822 76.0581C211.461 76.8331 210.969 77.5528 210.361 78.1555C209.754 78.757 209.032 79.2501 208.255 79.6035C207.871 79.7777 207.474 79.9063 207.069 80.0172C206.857 80.075 206.646 80.128 206.431 80.1692C206.334 80.1877 206.247 80.1975 206.166 80.2234C206.08 80.2172 205.991 80.256 205.954 80.3594C205.276 82.2993 204.472 84.172 203.479 85.969C203.114 85.0493 202.85 84.1006 202.592 83.1433C202.448 82.6046 202.316 82.0629 202.192 81.5193C202.077 81.0206 202.013 80.4302 201.785 79.971C201.78 79.9618 201.771 79.9611 201.766 79.9538C201.773 79.9217 201.774 79.8866 201.759 79.846C201.682 79.6133 201.246 79.5678 201.044 79.4994C199.932 79.1233 198.905 78.504 198.06 77.6895C197.261 76.9187 196.601 75.9663 196.114 74.9555C196.05 74.9758 195.987 74.9961 195.921 75.0183C196.504 77.0178 198.041 78.6591 199.907 79.5807C200.154 79.7032 200.409 79.8103 200.669 79.9033C200.899 79.9851 201.172 80.0972 201.426 80.1138C201.424 80.3742 201.497 80.6383 201.546 80.8926C201.602 81.1869 201.662 81.4793 201.726 81.7717C201.846 82.3159 201.97 82.8607 202.115 83.3994C202.408 84.4903 202.808 85.559 203.263 86.592C203.331 86.7453 203.566 86.7226 203.64 86.592C204.727 84.6805 205.658 82.6514 206.316 80.5503C206.604 80.5638 206.962 80.4629 207.179 80.4179C207.626 80.3256 208.063 80.1698 208.481 79.9888C209.322 79.6232 210.092 79.1073 210.737 78.4535Z" fill="#2E344B"/>
<path d="M213.327 85.8484C213.319 85.8268 213.282 85.8139 213.27 85.841C212.988 86.4819 213.038 87.2951 212.976 87.9846C212.901 88.82 212.793 89.6505 212.671 90.4803C212.433 92.0853 212.024 93.6471 211.712 95.2367C211.673 95.4337 211.941 95.5057 212.01 95.3192C212.579 93.7893 212.87 92.1358 213.112 90.5265C213.228 89.7564 213.31 88.9807 213.372 88.2044C213.403 87.8135 213.427 87.4238 213.434 87.0316C213.441 86.6222 213.473 86.2368 213.327 85.8484Z" fill="#2E344B"/>
<path d="M208.562 99.9162C208.093 100.076 207.682 100.345 207.248 100.579C206.76 100.841 206.257 101.076 205.741 101.275C204.738 101.66 203.69 101.932 202.617 102.012C200.611 102.161 198.476 101.64 196.851 100.433C196.831 100.419 196.807 100.451 196.825 100.467C198.396 101.888 200.46 102.484 202.555 102.369C203.657 102.31 204.753 102.067 205.783 101.674C206.29 101.48 206.786 101.255 207.267 101.003C207.762 100.743 208.268 100.476 208.643 100.056C208.694 99.9981 208.645 99.8879 208.562 99.9162Z" fill="#2E344B"/>
<path d="M209.213 98.5075C208.834 98.7673 208.462 99.0326 208.059 99.2555C207.834 99.3799 207.599 99.4833 207.371 99.6015C207.158 99.7123 206.901 99.7905 206.721 99.953C206.711 99.9622 206.72 99.9758 206.731 99.9776C206.947 100.007 207.173 99.9235 207.378 99.8637C207.591 99.8016 207.794 99.7154 207.996 99.6249C208.413 99.4377 208.826 99.2229 209.197 98.9563C209.33 98.8609 209.646 98.6885 209.628 98.4946C209.606 98.2631 209.307 98.4429 209.213 98.5075Z" fill="#2E344B"/>
<path d="M205.006 128.45C205.001 128.108 205.001 127.765 205.001 127.423C205.001 127.114 205.081 126.702 204.931 126.423C204.863 126.297 204.69 126.314 204.618 126.423C204.525 126.566 204.522 126.743 204.514 126.909C204.505 127.093 204.498 127.278 204.492 127.462C204.481 127.804 204.481 128.147 204.486 128.49C204.496 129.191 204.497 129.906 204.674 130.588C204.726 130.79 204.996 130.728 205.015 130.542C205.085 129.847 205.017 129.147 205.006 128.45Z" fill="#2E344B"/>
<path d="M201.456 139.426C201.745 138.009 202.057 136.597 202.399 135.191C202.751 133.745 203.194 132.298 203.441 130.831C203.45 130.78 203.374 130.736 203.35 130.792C202.849 131.969 202.544 133.233 202.209 134.464C201.862 135.742 201.561 137.036 201.282 138.33C200.723 140.92 200.263 143.534 199.909 146.161C199.205 151.368 198.859 156.667 198.983 161.922C199.05 164.77 199.211 167.636 199.614 170.459C196.846 170.451 194.079 170.443 191.311 170.448C190.911 170.449 190.51 170.446 190.109 170.445C190.133 170.624 190.155 170.796 190.177 170.96C193.345 170.966 196.512 170.957 199.68 170.947C200.286 170.945 200.891 170.944 201.497 170.943C201.485 170.787 201.472 170.629 201.459 170.462C200.988 170.461 200.518 170.461 200.047 170.46C199.821 167.953 199.591 165.45 199.498 162.933C199.401 160.314 199.385 157.682 199.489 155.063C199.698 149.817 200.406 144.568 201.456 139.426Z" fill="#2E344B"/>
<path d="M222.512 170.434C221.857 170.436 221.201 170.438 220.546 170.44C220.572 170.408 220.591 170.367 220.588 170.312C220.447 166.837 220.269 163.365 220.244 159.886C220.232 158.174 220.244 156.461 220.305 154.75C220.367 153.023 220.535 151.301 220.582 149.574C220.675 146.176 220.038 142.826 219.887 139.44C219.811 137.749 219.89 136.058 219.899 134.366C219.909 132.68 219.851 130.992 219.718 129.311C219.425 125.591 218.854 121.813 217.704 118.256C217.664 118.133 217.482 118.183 217.511 118.308C218.256 121.613 218.945 124.91 219.261 128.288C219.416 129.942 219.505 131.603 219.516 133.263C219.527 134.95 219.438 136.636 219.459 138.323C219.5 141.713 220.17 145.061 220.194 148.451C220.207 150.15 220.054 151.846 219.958 153.541C219.861 155.251 219.798 156.964 219.795 158.676C219.786 162.555 219.947 166.439 220.175 170.311C220.178 170.366 220.201 170.407 220.231 170.44C218.102 170.446 215.972 170.453 213.844 170.457C213.02 170.458 212.198 170.461 211.375 170.462C211.417 170.632 211.459 170.794 211.499 170.949C214.562 170.955 217.625 170.961 220.688 170.967C221.303 170.968 221.919 170.97 222.534 170.972C222.526 170.799 222.519 170.62 222.512 170.434Z" fill="#2E344B"/>
<path d="M200.713 64.8675C200.678 64.4298 200.497 64.0063 200.162 63.8339C200.064 63.7834 199.961 63.76 199.852 63.7631C199.778 63.7496 199.706 63.7551 199.635 63.7791C199.527 63.792 199.428 63.8302 199.339 63.8942C199.286 63.9392 199.235 63.9841 199.183 64.0291C199.089 64.1343 199.028 64.2544 198.999 64.3898C198.865 65.0171 198.955 66.2921 199.888 66.1831C200.101 66.1579 200.318 66.0742 200.456 65.9073C200.656 65.6629 200.744 65.2597 200.713 64.8675Z" fill="#2E344B"/>
<path d="M206.723 65.0204C206.688 64.5827 206.506 64.1591 206.172 63.9867C206.074 63.9362 205.97 63.9128 205.861 63.9159C205.787 63.9024 205.715 63.9079 205.645 63.9319C205.536 63.9449 205.438 63.983 205.349 64.0471C205.296 64.092 205.244 64.1369 205.193 64.1819C205.099 64.2872 205.038 64.4072 205.009 64.5426C204.874 65.17 204.964 66.4449 205.898 66.336C206.111 66.3107 206.327 66.2276 206.465 66.0602C206.666 65.8157 206.753 65.4125 206.723 65.0204Z" fill="#2E344B"/>
<path d="M202.873 68.2109C202.787 68.1284 202.703 68.0533 202.605 67.9843C202.515 67.9222 202.419 67.8711 202.338 67.796C202.177 67.647 202.08 67.445 202.241 67.2604C202.43 67.0449 202.575 66.8159 202.671 66.545C202.754 66.3117 202.853 65.9571 202.73 65.7256C202.677 65.6253 202.53 65.6333 202.474 65.7256C202.397 65.8549 202.393 66.0254 202.351 66.1695C202.31 66.3098 202.253 66.4422 202.178 66.5678C202.104 66.6928 202.019 66.8048 201.92 66.9107C201.798 67.0412 201.695 67.1742 201.676 67.3576C201.646 67.6482 201.799 67.9326 202.017 68.1167C202.123 68.2072 202.242 68.2903 202.37 68.3476C202.505 68.4079 202.634 68.4251 202.78 68.4331C202.894 68.4411 202.953 68.2872 202.873 68.2109Z" fill="#B44E50"/>
<path d="M205.732 64.1544C205.712 64.0836 205.676 64.0215 205.624 63.9691L205.539 63.9033C205.473 63.8651 205.403 63.846 205.327 63.846C205.269 63.8435 205.215 63.8559 205.165 63.8823C205.113 63.8989 205.068 63.9285 205.03 63.9691C204.989 64.0073 204.96 64.0522 204.943 64.1046C204.916 64.1544 204.905 64.2086 204.906 64.2665C204.911 64.304 204.916 64.341 204.921 64.3779C204.941 64.4493 204.977 64.5109 205.029 64.5632L205.114 64.6291C205.179 64.6673 205.25 64.6863 205.326 64.6863C205.384 64.6888 205.438 64.6765 205.488 64.65C205.54 64.6328 205.585 64.6038 205.622 64.5632C205.664 64.525 205.693 64.4801 205.709 64.4284C205.736 64.3785 205.747 64.3244 205.746 64.2665C205.742 64.2283 205.737 64.1914 205.732 64.1544Z" fill="white"/>
<path d="M199.317 66.7238C199.317 67.1738 198.758 67.5389 198.069 67.5389C197.381 67.5389 196.822 67.1738 196.822 66.7238C196.822 66.2738 197.381 65.9087 198.069 65.9087C198.759 65.9087 199.317 66.2738 199.317 66.7238Z" fill="#C85F64"/>
<path d="M209.096 66.9015C209.096 67.3515 208.537 67.7166 207.848 67.7166C207.159 67.7166 206.6 67.3515 206.6 66.9015C206.6 66.4515 207.158 66.0864 207.848 66.0864C208.537 66.0864 209.096 66.4515 209.096 66.9015Z" fill="#C85F64"/>
<path d="M206.978 63.4202C206.934 63.3765 206.859 63.3507 206.798 63.3728C206.784 63.3778 206.771 63.3833 206.756 63.3895C206.74 63.3944 206.726 63.4024 206.713 63.4147C206.705 63.4209 206.697 63.427 206.689 63.4338C206.687 63.4362 206.684 63.4393 206.681 63.4424C206.67 63.4547 206.657 63.467 206.646 63.48L206.575 63.5551C206.554 63.5772 206.535 63.6012 206.522 63.6289C206.514 63.6443 206.508 63.6591 206.5 63.6745C206.497 63.6819 206.493 63.6899 206.49 63.6973C206.488 63.7016 206.486 63.7059 206.484 63.7102C206.481 63.717 206.478 63.7237 206.475 63.7311C206.468 63.7428 206.465 63.7557 206.465 63.7699C206.46 63.805 206.466 63.8395 206.484 63.8709C206.494 63.89 206.512 63.9109 206.531 63.9201C206.539 63.9238 206.546 63.9269 206.554 63.93C206.593 63.9466 206.635 63.9466 206.674 63.93C206.695 63.9214 206.715 63.9115 206.734 63.9017C206.748 63.8949 206.763 63.8875 206.776 63.8807C206.804 63.8666 206.828 63.8463 206.851 63.8241C206.874 63.8013 206.897 63.7785 206.92 63.7558C206.933 63.7434 206.945 63.7317 206.957 63.7194C206.96 63.717 206.963 63.7139 206.965 63.7114C206.976 63.6985 206.985 63.685 206.996 63.672L207 63.6677C207.011 63.6474 207.018 63.624 207.025 63.6018C207.046 63.5384 207.023 63.4646 206.978 63.4202Z" fill="#C85F64"/>
<path d="M207.29 64.146C207.286 64.1368 207.282 64.1276 207.278 64.1183C207.27 64.1048 207.261 64.0937 207.248 64.0857C207.24 64.0783 207.232 64.0734 207.222 64.0709C207.208 64.0635 207.194 64.0605 207.178 64.0611L207.122 64.0543C207.112 64.0531 207.103 64.0518 207.093 64.0506C207.073 64.0481 207.054 64.0518 207.035 64.0555C207.017 64.0586 206.998 64.0611 206.981 64.066C206.957 64.0728 206.935 64.0875 206.913 64.0999C206.855 64.1325 206.855 64.223 206.913 64.2556C206.934 64.2673 206.956 64.2802 206.979 64.2882C206.997 64.2944 207.016 64.2962 207.035 64.2993C207.053 64.303 207.072 64.3067 207.091 64.3042C207.1 64.303 207.109 64.3018 207.119 64.3005L207.178 64.2932C207.188 64.2919 207.198 64.2901 207.208 64.2888C207.224 64.2852 207.237 64.2784 207.248 64.2679C207.267 64.2531 207.284 64.2316 207.29 64.2076C207.292 64.1977 207.294 64.186 207.294 64.1768C207.294 64.1663 207.292 64.1559 207.29 64.146Z" fill="#C85F64"/>
<path d="M199.519 64.0143C199.498 63.9429 199.463 63.8813 199.41 63.829L199.325 63.7631C199.26 63.725 199.189 63.7059 199.114 63.7059C199.056 63.7034 199.001 63.7157 198.952 63.7422C198.899 63.7588 198.854 63.7878 198.816 63.829C198.776 63.8672 198.747 63.9121 198.729 63.9644C198.703 64.0143 198.691 64.0685 198.693 64.1263C198.698 64.1639 198.703 64.2008 198.708 64.2378C198.728 64.3092 198.764 64.3707 198.816 64.4231L198.901 64.4889C198.966 64.5271 199.037 64.5462 199.112 64.5462C199.17 64.5487 199.224 64.5364 199.274 64.5099C199.327 64.4933 199.371 64.4643 199.409 64.4231C199.45 64.3849 199.479 64.34 199.496 64.2883C199.522 64.2384 199.534 64.1842 199.532 64.1263C199.528 64.0888 199.524 64.0519 199.519 64.0143Z" fill="white"/>
<path d="M198.583 63.4535C198.578 63.4424 198.571 63.4319 198.561 63.4239C198.545 63.4079 198.526 63.3968 198.503 63.39L198.522 63.398C198.505 63.3907 198.489 63.3802 198.474 63.3697C198.47 63.366 198.466 63.363 198.462 63.3586C198.45 63.3469 198.438 63.3346 198.423 63.3266C198.417 63.3242 198.412 63.3211 198.407 63.3186C198.39 63.3082 198.376 63.2946 198.355 63.2897C198.34 63.2866 198.326 63.2866 198.311 63.2848C198.313 63.2854 198.315 63.2854 198.318 63.2854C198.294 63.2823 198.273 63.2891 198.255 63.3057C198.253 63.3075 198.252 63.3094 198.25 63.3112C198.242 63.3199 198.236 63.3285 198.229 63.3377C198.223 63.3469 198.219 63.3543 198.216 63.3679C198.213 63.379 198.211 63.3925 198.212 63.4036C198.214 63.4257 198.217 63.4479 198.223 63.4695C198.224 63.4725 198.225 63.475 198.226 63.4781C198.234 63.5021 198.244 63.5212 198.261 63.5409C198.266 63.5458 198.271 63.5507 198.276 63.5556C198.302 63.5815 198.332 63.6049 198.365 63.6221C198.37 63.6252 198.376 63.6277 198.382 63.6301C198.408 63.6418 198.436 63.656 198.465 63.6548C198.502 63.6529 198.539 63.64 198.564 63.6123C198.585 63.5889 198.605 63.5587 198.602 63.5255C198.599 63.5002 198.597 63.4775 198.583 63.4535Z" fill="#C85F64"/>
<path d="M198.308 64.1015C198.289 64.0892 198.268 64.0763 198.245 64.0713C198.221 64.0658 198.197 64.0646 198.172 64.0621C198.144 64.059 198.116 64.0578 198.087 64.0572C198.01 64.0566 197.927 64.0627 197.858 64.1015C197.806 64.131 197.775 64.2012 197.794 64.2591C197.813 64.32 197.864 64.3582 197.928 64.3619C197.941 64.3625 197.953 64.3601 197.965 64.3594C197.99 64.3576 198.015 64.3557 198.039 64.3508C198.058 64.3465 198.077 64.344 198.095 64.341C198.119 64.3385 198.142 64.336 198.165 64.3348C198.18 64.3342 198.195 64.3348 198.21 64.3342C198.236 64.3336 198.256 64.3268 198.279 64.3188C198.324 64.3028 198.357 64.2696 198.364 64.2203C198.37 64.1717 198.348 64.128 198.308 64.1015Z" fill="#C85F64"/>
<path d="M199.847 61.4423C199.898 61.3776 199.935 61.3179 199.947 61.2329C199.958 61.1566 199.949 61.0661 199.904 61.0002C199.874 60.9571 199.842 60.9091 199.807 60.8734C199.734 60.7989 199.648 60.7651 199.551 60.7294C199.421 60.6813 199.262 60.7066 199.13 60.7312C198.95 60.7651 198.776 60.834 198.615 60.9221C198.463 61.0064 198.303 61.1154 198.189 61.2465C198.041 61.4158 197.88 61.6583 197.882 61.8892C197.886 62.2142 198.233 62.4002 198.512 62.2506C198.638 62.1835 198.727 62.0567 198.84 61.9692C198.807 61.9945 198.774 62.0197 198.742 62.0443C198.793 62.0056 198.843 61.9655 198.892 61.9261C198.98 61.8609 199.075 61.8092 199.174 61.763C199.256 61.7322 199.338 61.702 199.425 61.6836C199.512 61.6651 199.594 61.6362 199.673 61.5931C199.737 61.558 199.794 61.5124 199.838 61.4546C199.838 61.4546 199.842 61.4496 199.842 61.4484C199.837 61.4546 199.836 61.4558 199.847 61.4423Z" fill="#5F2A3D"/>
<path d="M199.842 61.4492C199.855 61.4344 199.898 61.3814 199.882 61.3968C199.87 61.4073 199.847 61.4405 199.842 61.4492Z" fill="#5F2A3D"/>
<path d="M206.953 62.0439C206.918 62.0584 206.924 62.0559 206.953 62.0439V62.0439Z" fill="#5F2A3D"/>
<path d="M205.197 61.352C205.196 61.3507 205.195 61.3495 205.194 61.3482C205.187 61.3432 205.181 61.3401 205.174 61.3345C205.176 61.3357 205.187 61.3439 205.197 61.352Z" fill="#5F2A3D"/>
<path d="M207.067 61.3526C206.885 61.0528 206.559 60.8607 206.231 60.7591C206.07 60.7092 205.898 60.6791 205.729 60.6797C205.515 60.6809 205.295 60.7037 205.137 60.8632C204.986 61.0158 205.038 61.2288 205.193 61.3483C205.238 61.3827 205.276 61.4068 205.333 61.4271C205.361 61.4369 205.389 61.4449 205.419 61.4511C205.482 61.4652 205.545 61.4782 205.607 61.4972C205.662 61.5145 205.716 61.5354 205.771 61.5551C205.8 61.5656 205.829 61.5785 205.858 61.5884C205.722 61.5422 205.829 61.5767 205.866 61.5958C205.978 61.6524 206.089 61.7219 206.193 61.794C206.197 61.7971 206.201 61.8007 206.205 61.8044C206.199 61.7983 206.197 61.7971 206.188 61.7891C206.233 61.8328 206.288 61.8715 206.34 61.9066C206.39 61.9399 206.438 61.9768 206.492 62.0014C206.544 62.0255 206.596 62.0532 206.649 62.0704C206.686 62.0821 206.734 62.0901 206.773 62.0901C206.84 62.0901 206.891 62.0661 206.951 62.0439C206.959 62.0402 206.963 62.0384 206.978 62.0328L206.952 62.0433C206.952 62.0433 206.952 62.0433 206.951 62.0439C206.958 62.0415 206.965 62.039 206.972 62.0365C206.975 62.0353 206.978 62.0328 206.981 62.0316C206.983 62.031 206.982 62.031 206.984 62.0304C207.003 62.0181 207.025 62.0008 207.041 61.9854C207.219 61.8198 207.183 61.5428 207.067 61.3526Z" fill="#5F2A3D"/>
<path d="M206.206 61.8042C206.24 61.8312 206.27 61.8651 206.206 61.8042V61.8042Z" fill="#5F2A3D"/>
<path d="M205.197 61.3521C205.198 61.3533 205.2 61.3552 205.201 61.3558C205.23 61.3772 205.214 61.3652 205.197 61.3521Z" fill="#5F2A3D"/>
<path d="M203.447 69.2949C203.209 69.1526 202.888 69.1009 202.616 69.1231C202.285 69.1508 201.974 69.2585 201.725 69.4826C201.556 69.6347 201.772 69.8994 201.963 69.7911C202.171 69.6735 202.403 69.6002 202.641 69.599C202.704 69.5984 202.767 69.6033 202.831 69.6101C202.836 69.6107 202.888 69.6156 202.861 69.6125C202.837 69.6094 202.879 69.6156 202.879 69.6156C202.916 69.6224 202.953 69.6291 202.99 69.6384C203.138 69.6747 203.236 69.7283 203.355 69.7701C203.429 69.7966 203.519 69.828 203.595 69.7947C203.607 69.7898 203.637 69.7658 203.648 69.7578C203.668 69.7387 203.683 69.7258 203.695 69.6981C203.768 69.5276 203.577 69.3724 203.447 69.2949Z" fill="#B44E50"/>
<path d="M203.648 69.7572C203.645 69.7603 203.644 69.7634 203.64 69.7666C203.656 69.7521 203.655 69.7528 203.648 69.7572Z" fill="#B44E50"/>
<path d="M161.023 71.8387C160.899 70.9122 160.013 69.9284 158.988 70.0417C158.177 70.1309 157.509 70.3482 156.789 70.7398C156.438 70.9312 156.095 71.1399 155.762 71.3609C154.934 71.9101 154.135 72.5312 153.429 73.2306C152.743 73.909 152.099 74.673 151.672 75.5404C151.43 76.0317 151.228 76.542 151.085 77.0709C150.964 77.5178 150.933 77.9555 151.055 78.4092C151.244 79.1135 151.894 79.8098 152.692 79.7488C153.236 79.707 153.69 79.513 154.085 79.1363C154.308 78.9227 154.457 78.6598 154.624 78.4055C154.813 78.1193 155.021 77.8429 155.228 77.5695C155.435 77.3085 155.642 77.0487 155.845 76.784C155.735 76.9262 155.625 77.0684 155.516 77.2106C156.064 76.5094 156.699 75.8889 157.392 75.3317C157.952 74.9168 158.548 74.5277 159.172 74.2156C159.292 74.1762 159.411 74.1325 159.539 74.1128C159.998 74.0426 160.567 73.5587 160.777 73.1604C160.998 72.7412 161.086 72.3102 161.023 71.8387Z" fill="white"/>
<path d="M167.829 70.7856C167.829 70.6237 167.788 70.4729 167.707 70.3331C167.664 70.1811 167.587 70.0493 167.476 69.9373C167.433 69.8548 167.376 69.7852 167.304 69.7298C167.182 69.6356 167.06 69.5414 166.938 69.4472C166.914 69.4306 166.89 69.414 166.866 69.398C166.689 69.2835 166.489 69.2041 166.286 69.1493C166.157 69.1142 166.026 69.0853 165.895 69.0625C165.627 69.0151 165.355 68.9794 165.084 68.9523C164.951 68.9394 164.818 68.9277 164.685 68.9424C164.423 68.972 164.157 69.0058 163.899 69.0619C163.835 69.076 163.772 69.0914 163.709 69.108C163.609 69.1351 163.53 69.1714 163.428 69.2145C163.23 69.2983 163.02 69.4152 162.875 69.5808C162.603 69.8917 162.382 70.2937 162.402 70.7241C162.42 71.1242 162.547 71.6069 162.875 71.8673C163.111 72.0538 163.317 72.2391 163.625 72.3087C163.675 72.3198 163.727 72.3253 163.778 72.3327C163.911 72.3536 164.043 72.3764 164.172 72.4096C164.322 72.4478 164.475 72.4663 164.626 72.4983C164.778 72.5303 164.928 72.5703 165.076 72.6183C165.147 72.6411 165.217 72.6657 165.286 72.6922C165.362 72.7218 165.445 72.7328 165.526 72.747C165.518 72.7458 165.51 72.7452 165.502 72.7439C165.513 72.7458 165.524 72.7476 165.535 72.7495C165.604 72.7612 165.672 72.7759 165.741 72.7827C165.837 72.7987 165.934 72.8123 166.026 72.8147C166.12 72.8227 166.213 72.8129 166.306 72.7852C166.468 72.7846 166.618 72.7439 166.758 72.6627C166.91 72.6202 167.042 72.5432 167.154 72.4324C167.223 72.3912 167.286 72.3425 167.342 72.2859C167.352 72.276 167.362 72.2668 167.371 72.257C167.678 71.9362 167.856 71.5022 167.861 71.0583C167.863 70.9641 167.845 70.8995 167.829 70.7856Z" fill="white"/>
<path d="M173.17 95.597C173.109 95.3421 172.992 95.1205 172.819 94.9315C172.462 94.4685 171.891 94.1256 171.282 94.1601C171.221 94.1638 171.16 94.165 171.099 94.1675C170.659 94.1847 170.295 94.2931 169.915 94.4975C169.772 94.5744 169.643 94.6538 169.51 94.7474C169.388 94.833 169.262 94.9136 169.134 94.9893C168.977 95.0823 168.832 95.1919 168.689 95.3045C168.18 95.6733 167.554 95.9362 167.257 96.5198C167.114 96.7999 167.052 97.0794 167.094 97.394C167.137 97.711 167.265 97.9339 167.472 98.1814C167.905 98.701 168.538 98.7656 169.158 98.8265C169.433 98.8536 169.711 98.8629 169.986 98.8475C170.446 98.821 170.861 98.6991 171.282 98.5286C171.614 98.3944 171.851 98.2989 172.116 98.0976C172.443 97.8502 172.741 97.6378 172.914 97.2493C173.004 97.048 173.089 96.8436 173.17 96.6386C173.263 96.2908 173.263 95.9442 173.17 95.597Z" fill="white"/>
<path d="M203.413 246.962H196.784L183.084 191.132H189.714L203.413 246.962Z" fill="#8EADD5"/>
<path d="M243.922 246.962H237.294L223.594 191.132H230.223L243.922 246.962Z" fill="#8EADD5"/>
<path d="M201.572 246.962H194.943L181.243 191.132H187.872L201.572 246.962Z" fill="#B9CFE6"/>
<path d="M166.218 246.962H172.847L186.546 191.132H179.918L166.218 246.962Z" fill="#8EADD5"/>
<path d="M242.229 246.962H235.6L221.9 191.132H228.529L242.229 246.962Z" fill="#B9CFE6"/>
<path d="M190.082 211.167H229.266V205.421H190.082V211.167Z" fill="#B9CFE6"/>
<path d="M196.268 231.642H235.452V225.897H196.268V231.642Z" fill="#B9CFE6"/>
<path d="M163.664 246.962H170.294L183.993 191.132H177.364L163.664 246.962Z" fill="white"/>
<path d="M206.777 246.962H213.405L227.105 191.132H220.476L206.777 246.962Z" fill="#8EADD5"/>
<path d="M204.322 246.962H210.95L224.65 191.132H218.021L204.322 246.962Z" fill="white"/>
<path d="M215.812 205.421H176.628V211.166H215.812V205.421Z" fill="white"/>
<path d="M209.625 225.897H170.441V231.642H209.625V225.897Z" fill="white"/>
<path d="M229.61 192.606H175.792C174.491 192.606 173.436 191.551 173.436 190.25V190.149C173.436 188.849 174.49 187.793 175.792 187.793H229.61C230.911 187.793 231.966 188.848 231.966 190.149V190.25C231.966 191.551 230.911 192.606 229.61 192.606Z" fill="white"/>
<path d="M29.3856 142.456H73.2822C74.7443 142.456 76.1276 143.03 77.0449 144.019L83.2417 150.694C83.8531 151.353 84.7759 151.736 85.7504 151.736H154.275C156.702 151.736 158.67 153.443 158.67 155.55V238.734C158.67 243.278 154.425 246.962 149.189 246.962H31.5508C27.8841 246.962 24.9113 244.382 24.9113 241.2V146.339C24.9119 144.195 26.9145 142.456 29.3856 142.456Z" fill="#D3723F"/>
<path d="M61.5687 92.7759L43.1005 111.244V182.014H133.631V92.7759H61.5687Z" fill="white"/>
<path d="M61.5687 111.244V92.7759L43.1005 111.244H61.5687Z" fill="#B9CFE6"/>
<path d="M13.9858 163.307H135.619C138.486 163.307 140.946 165.078 141.476 167.523L157.345 240.837C158.033 244.019 155.22 246.962 151.488 246.962H29.8553C26.9884 246.962 24.5283 245.191 23.9989 242.746L8.12992 169.432C7.44104 166.249 10.2544 163.307 13.9858 163.307Z" fill="#EBAB6F"/>
<path d="M92.06 130.675C94.3741 128.33 96.6839 125.979 98.995 123.629C100.356 122.245 100.479 119.749 98.995 118.387C97.5261 117.038 95.2058 116.91 93.7536 118.387C91.4093 120.692 89.0656 122.996 86.7256 125.304C84.4096 122.988 82.085 120.68 79.7327 118.4C78.3654 116.989 75.7865 116.923 74.4315 118.4C73.0402 119.915 72.9725 122.196 74.4315 123.701C76.7063 126.047 79.0081 128.365 81.3185 130.675C79.0093 132.984 76.7094 135.301 74.4352 137.646C73.0248 139.014 72.959 141.593 74.4352 142.948C75.9509 144.339 78.2318 144.407 79.7364 142.948C82.0875 140.668 84.4115 138.361 86.7256 136.046C89.0643 138.353 91.4068 140.656 93.7499 142.96C95.1338 144.321 97.6295 144.444 98.9913 142.96C100.34 141.491 100.468 139.171 98.9913 137.718C96.6821 135.369 94.3735 133.02 92.06 130.675Z" fill="#C85F64"/>
<path d="M17.3736 98.7778H16.5806C16.4575 98.398 16.3048 98.0317 16.1251 97.6808L16.6865 97.1193C17.2178 96.5881 17.2178 95.7274 16.6865 95.1961L15.3475 93.8565C14.8163 93.3259 13.9556 93.3259 13.4249 93.8565L12.8635 94.418C12.5126 94.2388 12.1463 94.0855 11.7664 93.9624V93.1695C11.7664 92.4184 11.1576 91.8096 10.4065 91.8096H8.51225C7.76119 91.8096 7.15234 92.4184 7.15234 93.1695V93.9624C6.7725 94.0855 6.4062 94.2382 6.05529 94.418L5.49384 93.8565C4.96318 93.3259 4.10192 93.3259 3.57125 93.8565L2.23165 95.1961C1.70098 95.7274 1.70098 96.5881 2.23165 97.1193L2.7931 97.6808C2.61333 98.0317 2.46066 98.3974 2.33753 98.7778H1.54461C0.793545 98.7778 0.184692 99.3867 0.184692 100.138V102.032C0.184692 102.783 0.793545 103.392 1.54461 103.392H2.33753C2.46066 103.772 2.61333 104.138 2.7931 104.489L2.23165 105.05C1.70098 105.582 1.70098 106.442 2.23165 106.973L3.57125 108.313C4.10192 108.843 4.96318 108.843 5.49384 108.313L6.05529 107.751C6.4062 107.93 6.7725 108.084 7.15234 108.207V109C7.15234 109.751 7.76119 110.36 8.51225 110.36H10.4065C11.1576 110.36 11.7664 109.751 11.7664 109V108.207C12.1463 108.084 12.5126 107.931 12.8635 107.751L13.4249 108.313C13.9562 108.843 14.8169 108.843 15.3475 108.313L16.6865 106.973C17.2178 106.442 17.2178 105.581 16.6865 105.05L16.1251 104.489C16.3042 104.138 16.4575 103.772 16.5806 103.392H17.3736C18.1246 103.392 18.7335 102.783 18.7335 102.032V100.138C18.7329 99.3867 18.124 98.7778 17.3736 98.7778ZM9.45909 105.843C6.8316 105.843 4.70092 103.713 4.70092 101.085C4.70092 98.4571 6.83098 96.3264 9.45909 96.3264C12.0872 96.3264 14.2173 98.4565 14.2173 101.085C14.2173 103.713 12.0866 105.843 9.45909 105.843Z" fill="#C9B5A9"/>
<path d="M171.526 130.925H170.733C170.61 130.545 170.457 130.179 170.278 129.828L170.839 129.266C171.37 128.735 171.37 127.874 170.839 127.343L169.499 126.004C168.968 125.473 168.108 125.473 167.576 126.004L167.015 126.565C166.664 126.386 166.298 126.233 165.918 126.11V125.317C165.918 124.566 165.309 123.957 164.558 123.957H162.664C161.913 123.957 161.304 124.566 161.304 125.317V126.11C160.924 126.233 160.557 126.386 160.207 126.565L159.645 126.004C159.114 125.473 158.253 125.473 157.723 126.004L156.383 127.343C155.852 127.874 155.852 128.735 156.383 129.266L156.944 129.828C156.765 130.179 156.612 130.545 156.489 130.925H155.696C154.945 130.925 154.336 131.534 154.336 132.285V134.179C154.336 134.93 154.945 135.539 155.696 135.539H156.489C156.612 135.919 156.765 136.285 156.944 136.636L156.383 137.197C155.852 137.729 155.852 138.589 156.383 139.12L157.723 140.46C158.253 140.991 159.114 140.991 159.645 140.46L160.207 139.899C160.557 140.078 160.924 140.231 161.304 140.354V141.147C161.304 141.898 161.913 142.507 162.664 142.507H164.558C165.309 142.507 165.918 141.898 165.918 141.147V140.354C166.298 140.231 166.664 140.078 167.015 139.899L167.576 140.46C168.108 140.991 168.968 140.991 169.499 140.46L170.839 139.12C171.37 138.589 171.37 137.729 170.839 137.197L170.278 136.636C170.457 136.285 170.61 135.919 170.733 135.539H171.526C172.277 135.539 172.886 134.93 172.886 134.179V132.285C172.885 131.533 172.277 130.925 171.526 130.925ZM163.612 137.989C160.984 137.989 158.853 135.859 158.853 133.231C158.853 130.603 160.984 128.473 163.612 128.473C166.24 128.473 168.37 130.603 168.37 133.231C168.37 135.859 166.239 137.989 163.612 137.989Z" fill="#C9B5A9"/>
<path d="M38.7456 84.7132L37.7008 84.3173C37.7285 83.7553 37.7095 83.1963 37.6485 82.6447L38.6686 82.1848C39.6333 81.7502 40.063 80.6162 39.6284 79.6515L38.5319 77.2186C38.0973 76.2539 36.9633 75.8242 35.9986 76.2588L34.9785 76.7187C34.6061 76.3075 34.1998 75.9233 33.7608 75.5712L34.1567 74.5264C34.5316 73.5371 34.0329 72.4309 33.0436 72.0566L30.5479 71.1116C29.5586 70.7367 28.4529 71.2353 28.078 72.2246L27.6822 73.2693C27.1201 73.2416 26.5611 73.2607 26.0095 73.3217L25.5496 72.3016C25.115 71.3369 23.9804 70.9072 23.0163 71.3418L20.5834 72.4382C19.6187 72.8729 19.189 74.0069 19.6236 74.9715L20.0835 75.9916C19.6723 76.3641 19.2875 76.7704 18.936 77.2093L17.8913 76.8135C16.9019 76.4386 15.7963 76.9372 15.4214 77.9265L14.4764 80.4223C14.1015 81.4116 14.6001 82.5179 15.5894 82.8922L16.6341 83.288C16.6064 83.8501 16.6255 84.4091 16.6865 84.9607L15.6664 85.4205C14.7017 85.8552 14.272 86.9892 14.7066 87.9538L15.8031 90.3868C16.2377 91.3515 17.3717 91.7812 18.3363 91.3466L19.3564 90.8867C19.7289 91.2979 20.1352 91.6827 20.5741 92.0342L20.1783 93.0789C19.8034 94.0682 20.302 95.1739 21.2914 95.5488L23.7871 96.4938C24.7764 96.8687 25.8821 96.3701 26.257 95.3807L26.6528 94.336C27.2149 94.3637 27.7739 94.3447 28.3255 94.2837L28.7854 95.3038C29.22 96.2685 30.354 96.6982 31.3187 96.2636L33.7516 95.1671C34.7163 94.7325 35.146 93.5985 34.7114 92.6338L34.2515 91.6137C34.6627 91.2413 35.0475 90.835 35.399 90.396L36.4437 90.7919C37.433 91.1668 38.5387 90.6681 38.9136 89.6788L39.8586 87.1831C40.2329 86.1938 39.7349 85.0875 38.7456 84.7132ZM24.7924 90.0716C21.3301 88.7603 19.5867 84.8905 20.898 81.4282C22.2092 77.9659 26.0791 76.2225 29.5413 77.5338C33.0036 78.8451 34.7471 82.7149 33.4358 86.1772C32.1245 89.6388 28.2547 91.3829 24.7924 90.0716Z" fill="#C9B5A9"/>
<path d="M50.2855 38.5094L45.2922 49.0987L56.0133 78.9553L84.0735 68.8794L70.555 31.2314L50.2855 38.5094Z" fill="white"/>
<path d="M53.0835 46.3006L50.2855 38.5093L45.2922 49.0986L53.0835 46.3006Z" fill="#F4E8D8"/>
<path d="M66.1299 54.0732C66.8231 52.5766 67.5138 51.0788 68.2045 49.581C68.6114 48.6988 68.247 47.5026 67.318 47.1123C66.3983 46.7257 65.2834 47.0575 64.8494 47.9988C64.1352 49.4813 63.4205 50.9631 62.7088 52.4461C61.2264 51.7468 59.7409 51.0529 58.2468 50.3764C57.364 49.9436 56.1383 50.3487 55.7498 51.2733C55.3509 52.2226 55.7049 53.3086 56.6468 53.7703C58.115 54.4906 59.5913 55.1936 61.0707 55.8905C60.3732 57.3686 59.6818 58.8492 59.0077 60.3384C58.5743 61.2212 58.98 62.4469 59.904 62.8354C60.8533 63.2343 61.9393 62.8803 62.401 61.939C63.1231 60.4671 63.8274 58.9877 64.5262 57.5059C66.0178 58.1973 67.5113 58.8855 69.0048 59.5744C69.887 59.9814 71.0832 59.6169 71.4735 58.6879C71.8601 57.7676 71.5283 56.6533 70.587 56.2193C69.1009 55.5027 67.616 54.7867 66.1299 54.0732Z" fill="#C85F64"/>
<path d="M108.961 18.5737L99.6144 22.39L89.0164 47.6109L112.72 57.5711L126.084 25.7685L108.961 18.5737Z" fill="white"/>
<path d="M106.196 25.1554L108.961 18.5737L99.6143 22.39L106.196 25.1554Z" fill="#F4E8D8"/>
<path d="M109.953 37.7013C111.266 37.1547 112.578 36.6062 113.891 36.057C114.663 35.7338 115.13 34.7611 114.767 33.9713C114.408 33.1888 113.507 32.7499 112.682 33.0946C111.364 33.6198 110.046 34.1449 108.729 34.6719C108.194 33.363 107.656 32.0561 107.101 30.7553C106.793 29.9654 105.777 29.508 104.991 29.8687C104.184 30.2394 103.776 31.1357 104.105 31.9785C104.618 33.2922 105.146 34.5998 105.679 35.905C104.374 36.4375 103.071 36.9749 101.774 37.5277C100.984 37.8362 100.527 38.8513 100.887 39.6369C101.258 40.444 102.154 40.8521 102.997 40.5234C104.313 40.0093 105.623 39.4799 106.932 38.9455C107.477 40.2543 108.024 41.5626 108.57 42.8714C108.894 43.644 109.866 44.1106 110.656 43.748C111.439 43.3891 111.878 42.4872 111.533 41.6623C111.007 40.3418 110.481 39.0206 109.953 37.7013Z" fill="#C85F64"/>
<path d="M204.068 41.1225C203.916 40.5049 203.991 39.9442 204.295 39.4404C204.593 38.9129 205.051 38.5727 205.668 38.4198C206.642 38.1787 207.486 37.8186 208.199 37.3395C208.906 36.8367 209.403 36.1969 209.69 35.42C210.001 34.6373 210.021 33.6996 209.75 32.607C209.55 31.7993 209.172 31.1367 208.615 30.6191C208.082 30.0956 207.427 29.7409 206.65 29.5552C205.897 29.3635 205.093 29.3735 204.237 29.5852C203.572 29.7499 202.972 30.0245 202.437 30.409C201.926 30.7877 201.483 31.2377 201.108 31.7591C200.81 32.1858 200.408 32.5498 199.903 32.8514C199.416 33.1232 198.849 33.1249 198.203 32.8563C197.527 32.5699 197.092 32.1356 196.897 31.5536C196.703 30.9715 196.793 30.3693 197.168 29.747C197.806 28.6564 198.636 27.7325 199.659 26.9751C200.699 26.1882 201.873 25.633 203.179 25.3096C204.818 24.9038 206.385 24.9193 207.879 25.356C209.392 25.7631 210.696 26.4991 211.791 27.5639C212.887 28.6288 213.632 29.957 214.026 31.5485C214.32 32.7362 214.403 33.8373 214.276 34.8519C214.143 35.8428 213.827 36.7531 213.326 37.5828C212.844 38.3829 212.213 39.0937 211.434 39.7151C210.673 40.3068 209.802 40.8123 208.822 41.2314C208.781 41.2669 208.739 41.3024 208.697 41.3379C208.679 41.3676 208.676 41.4061 208.688 41.4536L209.014 42.772C209.167 43.3896 209.095 43.9621 208.797 44.4896C208.493 44.9934 208.032 45.3218 207.415 45.4746C206.797 45.6275 206.236 45.552 205.733 45.2482C205.223 44.9206 204.892 44.448 204.739 43.8304L204.068 41.1225ZM208.815 51.8966C208.127 52.0671 207.548 52.0213 207.08 51.7591C206.629 51.4672 206.319 50.9768 206.148 50.288L205.998 49.6823C205.828 48.9934 205.877 48.4267 206.145 47.9822C206.431 47.5081 206.918 47.1857 207.607 47.0152L208.07 46.9006C208.759 46.73 209.329 46.7907 209.779 47.0825C210.247 47.3448 210.567 47.8203 210.737 48.5092L210.887 49.1149C211.058 49.8037 211 50.3852 210.714 50.8594C210.446 51.3039 209.967 51.6114 209.279 51.7819L208.815 51.8966Z" fill="white"/>
<path d="M196.033 45.7388C195.666 45.3146 195.501 44.8438 195.538 44.3263C195.561 43.7924 195.785 43.3419 196.209 42.9746C196.878 42.3954 197.397 41.7749 197.766 41.1129C198.12 40.4347 198.255 39.7329 198.169 39.0077C198.1 38.2684 197.741 37.5235 197.091 36.773C196.61 36.2183 196.048 35.849 195.403 35.6649C194.775 35.4668 194.118 35.4502 193.433 35.6151C192.765 35.7659 192.137 36.0956 191.549 36.6042C191.092 36.9997 190.731 37.4556 190.464 37.9719C190.214 38.4741 190.046 39.0051 189.96 39.565C189.896 40.0194 189.726 40.4662 189.45 40.9053C189.176 41.314 188.731 41.5421 188.116 41.5896C187.47 41.635 186.954 41.4679 186.568 41.0883C186.183 40.7087 186.013 40.1992 186.059 39.56C186.123 38.4478 186.406 37.3895 186.906 36.3852C187.409 35.3504 188.109 34.4445 189.007 33.6675C190.132 32.6928 191.37 32.078 192.719 31.8231C194.071 31.5378 195.39 31.5944 196.677 31.9929C197.964 32.3914 199.081 33.1372 200.027 34.2303C200.734 35.046 201.24 35.8779 201.546 36.7261C201.838 37.558 201.954 38.4001 201.892 39.2524C201.833 40.0743 201.622 40.8853 201.259 41.6853C200.897 42.4549 200.415 43.2005 199.813 43.9221C199.794 43.9667 199.776 44.0113 199.757 44.0558C199.755 44.0863 199.768 44.1178 199.796 44.1504L200.58 45.0559C200.947 45.4801 201.12 45.9591 201.097 46.4929C201.059 47.0104 200.829 47.4528 200.404 47.82C199.98 48.1873 199.509 48.3524 198.992 48.3152C198.46 48.2617 198.011 48.0228 197.644 47.5986L196.033 45.7388ZM204.075 52.3065C203.602 52.7161 203.129 52.9116 202.656 52.8929C202.185 52.8438 201.745 52.5826 201.335 52.1095L200.975 51.6935C200.565 51.2204 200.377 50.7555 200.41 50.2989C200.445 49.8118 200.699 49.3635 201.172 48.9538L201.49 48.6783C201.963 48.2687 202.435 48.0884 202.906 48.1376C203.379 48.1563 203.82 48.4022 204.23 48.8753L204.59 49.2913C205 49.7644 205.187 50.2445 205.152 50.7316C205.119 51.1882 204.866 51.6213 204.393 52.031L204.075 52.3065Z" fill="white"/>
<path d="M211.602 42.545C211.836 42.035 212.196 41.6897 212.683 41.5091C213.178 41.3089 213.681 41.3257 214.191 41.5596C214.995 41.9284 215.775 42.1435 216.53 42.2049C217.294 42.2467 217.989 42.0784 218.613 41.7001C219.257 41.3307 219.786 40.6949 220.2 39.7925C220.506 39.1255 220.609 38.4606 220.509 37.7977C220.429 37.1437 220.172 36.5392 219.738 35.9841C219.324 35.438 218.764 35.0031 218.058 34.6793C217.508 34.4274 216.944 34.2872 216.363 34.2585C215.803 34.2387 215.25 34.3057 214.704 34.4593C214.265 34.59 213.788 34.6206 213.273 34.551C212.788 34.4708 212.396 34.1606 212.098 33.6202C211.789 33.0512 211.727 32.5126 211.913 32.0042C212.098 31.4958 212.492 31.13 213.093 30.907C214.132 30.505 215.212 30.3237 216.333 30.3631C217.483 30.3919 218.598 30.6536 219.677 31.1483C221.03 31.769 222.103 32.6405 222.894 33.7629C223.713 34.8747 224.208 36.0989 224.379 37.4354C224.55 38.7718 224.334 40.0972 223.731 41.4115C223.281 42.3923 222.734 43.1978 222.089 43.8279C221.453 44.4384 220.734 44.8924 219.933 45.1898C219.161 45.4766 218.335 45.6203 217.456 45.621C216.606 45.6111 215.728 45.4814 214.822 45.2319C214.773 45.2335 214.725 45.2352 214.677 45.2368C214.648 45.2474 214.625 45.2723 214.607 45.3116L214.108 46.4003C213.874 46.9103 213.509 47.2654 213.014 47.4656C212.527 47.6462 212.029 47.6195 211.519 47.3857C211.009 47.1518 210.664 46.7917 210.483 46.3053C210.312 45.7993 210.343 45.2913 210.577 44.7812L211.602 42.545ZM208.957 52.5852C208.388 52.3243 208.014 51.9748 207.835 51.5367C207.685 51.0879 207.74 50.5791 208.001 50.0102L208.23 49.51C208.491 48.9411 208.836 48.577 209.266 48.4177C209.723 48.2477 210.237 48.2932 210.805 48.554L211.188 48.7294C211.757 48.9903 212.116 49.3451 212.267 49.7939C212.446 50.232 212.405 50.7355 212.144 51.3044L211.915 51.8046C211.654 52.3735 211.294 52.7429 210.837 52.9129C210.408 53.0722 209.908 53.0214 209.34 52.7606L208.957 52.5852Z" fill="white"/>
</svg>
