<svg width="24" height="24" viewBox="0 0 24 24" fill="none" xmlns="http://www.w3.org/2000/svg">
<g clip-path="url(#clip0_65_1714)">
<path d="M22.0312 6.60938L14.7188 1.40156C13.0922 0.24375 10.9078 0.24375 9.28125 1.40156L1.96875 6.60938C0.735938 7.49063 0 8.91094 0 10.4297V18.7828C0 21.3703 2.1 23.4703 4.6875 23.4703H19.3125C21.9 23.4703 24 21.3703 24 18.7828V10.4297C24 8.91094 23.2687 7.49063 22.0312 6.60938ZM22.125 18.7781C22.125 20.3297 20.8641 21.5906 19.3125 21.5906H12.9375V15.45H11.0625V21.5906H4.6875C3.13594 21.5906 1.875 20.3297 1.875 18.7781V10.4297C1.875 9.52031 2.31562 8.66719 3.05625 8.1375L10.3687 2.92969C11.3438 2.23594 12.6562 2.23594 13.6312 2.92969L20.9437 8.1375C21.6844 8.66719 22.125 9.52031 22.125 10.4297V18.7781Z" fill="#777777"/>
</g>
<defs>
<clipPath id="clip0_65_1714">
<rect width="24" height="24" fill="white"/>
</clipPath>
</defs>
</svg>
