<svg width="24" height="24" viewBox="0 0 24 24" fill="none" xmlns="http://www.w3.org/2000/svg">
<path d="M22 11H4.414L9.707 5.707C9.80251 5.61475 9.87869 5.50441 9.9311 5.3824C9.98351 5.2604 10.0111 5.12918 10.0123 4.9964C10.0134 4.86362 9.9881 4.73194 9.93782 4.60904C9.88754 4.48615 9.81329 4.37449 9.71939 4.2806C9.6255 4.18671 9.51385 4.11246 9.39095 4.06218C9.26806 4.01189 9.13638 3.98659 9.0036 3.98775C8.87082 3.9889 8.7396 4.01649 8.6176 4.0689C8.49559 4.1213 8.38525 4.19749 8.293 4.293L1.293 11.293C1.10553 11.4805 1.00021 11.7348 1.00021 12C1.00021 12.2652 1.10553 12.5195 1.293 12.707L8.293 19.707C8.4816 19.8892 8.7342 19.99 8.9964 19.9877C9.2586 19.9854 9.50941 19.8802 9.69482 19.6948C9.88023 19.5094 9.9854 19.2586 9.98767 18.9964C9.98995 18.7342 9.88916 18.4816 9.707 18.293L4.414 13H22C22.2652 13 22.5196 12.8946 22.7071 12.7071C22.8946 12.5196 23 12.2652 23 12C23 11.7348 22.8946 11.4804 22.7071 11.2929C22.5196 11.1054 22.2652 11 22 11Z" fill="white"/>
</svg>
