<svg width="225" height="69" viewBox="0 0 225 69" fill="none" xmlns="http://www.w3.org/2000/svg">
<path d="M50.8122 20.2079V31.6825C50.8122 31.9588 50.7394 32.2301 50.6013 32.4693C50.4631 32.7085 50.2645 32.9071 50.0253 33.0452L44.2543 36.3752L38.6145 39.6304L33.9111 42.3453C33.6718 42.4835 33.4004 42.5562 33.1242 42.5562C32.8479 42.5562 32.5765 42.4835 32.3372 42.3453L27.6378 39.6318L26.557 39.0088L21.998 36.3752L16.227 33.0439C15.9878 32.9058 15.7891 32.7072 15.651 32.468C15.5128 32.2288 15.4401 31.9574 15.44 31.6812V13.0784C15.4401 12.8022 15.5128 12.5309 15.651 12.2917C15.7891 12.0525 15.9878 11.8538 16.227 11.7157L21.998 8.38443L27.6378 5.12789L32.3372 2.41432C32.5765 2.27619 32.8479 2.20347 33.1242 2.20347C33.4004 2.20347 33.6718 2.27619 33.9111 2.41432L36.7678 4.06293L37.6478 4.5718L40.8654 6.42423V14.0085L34.4987 10.3268L33.78 9.91237C33.5809 9.79635 33.3546 9.73522 33.1242 9.73522C32.8937 9.73522 32.6674 9.79635 32.4684 9.91237L27.6378 12.702V12.6876L22.6538 15.5638C22.4544 15.6789 22.2888 15.8444 22.1737 16.0438C22.0586 16.2432 21.998 16.4693 21.998 16.6996V28.0483C21.998 28.2785 22.0586 28.5047 22.1737 28.704C22.2888 28.9034 22.4544 29.069 22.6538 29.1841L24.9228 30.4956L27.6378 32.0629L32.4684 34.8512C32.6462 34.954 32.8456 35.0136 33.0506 35.0252C33.2556 35.0368 33.4605 35.0001 33.6488 34.9181C33.6938 34.8984 33.7376 34.8761 33.78 34.8512L38.6145 32.0603L41.3268 30.4956L43.6011 29.1736C43.8001 29.0587 43.9654 28.8935 44.0805 28.6947C44.1956 28.4958 44.2564 28.2702 44.2569 28.0404V22.6998C46.6608 22.6335 48.9713 21.7551 50.8122 20.2079Z" fill="#054A91"/>
<mask id="mask0_220_399" style="mask-type:alpha" maskUnits="userSpaceOnUse" x="15" y="2" width="36" height="41">
<path d="M50.8124 20.2078V31.6824C50.8124 31.9587 50.7396 32.23 50.6015 32.4692C50.4634 32.7084 50.2647 32.907 50.0255 33.0451L44.2545 36.3751L38.6147 39.6303L33.9113 42.3452C33.6721 42.4834 33.4007 42.5561 33.1244 42.5561C32.8481 42.5561 32.5767 42.4834 32.3374 42.3452L27.638 39.6317L26.5572 39.0087L21.9982 36.3751L16.2272 33.0438C15.988 32.9057 15.7893 32.7071 15.6512 32.4679C15.513 32.2287 15.4403 31.9573 15.4402 31.6811V13.0783C15.4403 12.8021 15.513 12.5308 15.6512 12.2916C15.7893 12.0524 15.988 11.8537 16.2272 11.7156L21.9982 8.38433L27.638 5.12779L32.3374 2.41422C32.5767 2.27609 32.8481 2.20337 33.1244 2.20337C33.4007 2.20337 33.6721 2.27609 33.9113 2.41422L36.768 4.06283L37.648 4.57171L40.8656 6.42413V14.0084L34.4989 10.3267L33.7802 9.91227C33.5811 9.79626 33.3548 9.73512 33.1244 9.73512C32.894 9.73512 32.6677 9.79626 32.4686 9.91227L27.638 12.7019V12.6875L22.654 15.5637C22.4546 15.6788 22.289 15.8443 22.1739 16.0437C22.0588 16.2431 21.9982 16.4693 21.9982 16.6995V28.0482C21.9982 28.2784 22.0588 28.5046 22.1739 28.7039C22.289 28.9033 22.4546 29.0689 22.654 29.184L24.923 30.4955L27.638 32.0628L32.4686 34.8511C32.6464 34.9539 32.8458 35.0135 33.0508 35.0251C33.2558 35.0367 33.4607 35 33.649 34.918C33.694 34.8983 33.7378 34.876 33.7802 34.8511L38.6147 32.0602L41.327 30.4955L43.6013 29.1735C43.8003 29.0586 43.9656 28.8934 44.0807 28.6946C44.1958 28.4957 44.2567 28.2701 44.2571 28.0403V22.6997C46.661 22.6334 48.9715 21.755 50.8124 20.2078Z" fill="#4188FF"/>
</mask>
<g mask="url(#mask0_220_399)">
<path d="M49.5508 33.3426L42.9906 29.4059V24.1098L44.8569 21.0511L51.8695 19.1819L52.322 32.6629L49.5508 33.3426Z" fill="#FF595E"/>
</g>
<path d="M52.4512 10.7293C52.484 10.9129 52.5102 11.0952 52.5312 11.2762C52.547 11.4073 52.5588 11.5503 52.568 11.6867C52.5883 12.0151 52.5883 12.3445 52.568 12.673C52.4691 14.4407 51.8066 16.1303 50.6777 17.4942C49.5488 18.8582 48.0128 19.8247 46.2946 20.2523C46.1198 20.296 45.9449 20.3341 45.77 20.3664C45.5746 20.4018 45.3765 20.4294 45.185 20.4504C44.4748 18.978 44.3653 17.2871 44.8794 15.7354C44.993 15.3971 45.1347 15.069 45.3031 14.7544C46.0439 13.368 47.2789 12.3109 48.763 11.7929C48.5794 11.8073 48.3945 11.8336 48.2082 11.8664C46.5708 12.1635 45.1185 13.0987 44.1706 14.4665C43.2226 15.8342 42.8568 17.5224 43.1534 19.1598C43.1757 19.291 43.2019 19.4116 43.2334 19.5349C42.6913 18.7286 42.344 17.8073 42.2188 16.8438C42.0935 15.8803 42.1938 14.9009 42.5118 13.9827C42.8297 13.0646 43.3565 12.2329 44.0508 11.5531C44.745 10.8734 45.5877 10.3641 46.5124 10.0656C47.399 9.89713 48.2398 9.54271 48.9795 9.02571C49.7192 8.50871 50.341 7.84086 50.8039 7.06615C51.6468 8.13261 52.2127 9.39103 52.4512 10.7293Z" fill="#21D496"/>
<path d="M50.8122 35.5835V55.0454C50.8121 55.3216 50.7394 55.593 50.6012 55.8322C50.4631 56.0714 50.2644 56.27 50.0252 56.4081L44.2543 59.7381L38.6145 62.9947L33.9111 65.7095C33.6718 65.8477 33.4004 65.9204 33.1241 65.9204C32.8479 65.9204 32.5765 65.8477 32.3372 65.7095L25.3854 61.6968V54.1253L32.4683 58.2128C32.6677 58.3279 32.8939 58.3885 33.1241 58.3885C33.3544 58.3885 33.5805 58.3279 33.7799 58.2128L38.6145 55.4218V55.4494L44.2543 52.1941V39.3686L50.8122 35.5835Z" fill="#054A91"/>
<path d="M83.2828 31.5345V32.9583C83.2828 35.8058 82.345 38.1391 80.4695 39.9584C78.5939 41.7578 76.1457 42.6575 73.1251 42.6575C69.9267 42.6575 67.2811 41.6194 65.1884 39.5431C63.1153 37.4668 62.0788 34.9159 62.0788 31.8905C62.0788 28.8848 63.1153 26.3438 65.1884 24.2675C67.2811 22.1714 69.8675 21.1234 72.9474 21.1234C74.8822 21.1234 76.6492 21.5683 78.2484 22.4581C79.8476 23.348 81.0914 24.5443 81.9798 26.0472L79.048 27.7379C78.4952 26.7492 77.6758 25.9582 76.59 25.365C75.5041 24.752 74.2899 24.4455 72.9474 24.4455C70.7756 24.4455 68.9889 25.1573 67.5871 26.5811C66.1854 28.0048 65.4845 29.7845 65.4845 31.9201C65.4845 34.0557 66.1854 35.8255 67.5871 37.2295C69.0086 38.6335 70.8645 39.3355 73.1547 39.3355C74.9908 39.3355 76.4814 38.9103 77.6265 38.06C78.7913 37.19 79.5317 36.0332 79.8476 34.5896H72.9178V31.5345H83.2828Z" fill="#054A91"/>
<path d="M90.5719 29.9328C91.3814 28.0938 92.9016 27.1743 95.1326 27.1743V30.6447C93.9085 30.5656 92.8424 30.8622 91.9342 31.5345C91.026 32.1871 90.5719 33.2747 90.5719 34.7973V42.2719H87.3736V27.4413H90.5719V29.9328Z" fill="#054A91"/>
<path d="M109.714 27.4413H112.912V42.2719H109.714V40.1363C108.509 41.8171 106.782 42.6575 104.531 42.6575C102.498 42.6575 100.76 41.9061 99.3189 40.4033C97.8776 38.8807 97.157 37.0318 97.157 34.8566C97.157 32.6617 97.8776 30.8128 99.3189 29.3099C100.76 27.8071 102.498 27.0557 104.531 27.0557C106.782 27.0557 108.509 27.8862 109.714 29.5472V27.4413ZM101.688 38.2677C102.576 39.1575 103.692 39.6024 105.034 39.6024C106.377 39.6024 107.492 39.1575 108.381 38.2677C109.269 37.358 109.714 36.221 109.714 34.8566C109.714 33.4922 109.269 32.365 108.381 31.4752C107.492 30.5656 106.377 30.1108 105.034 30.1108C103.692 30.1108 102.576 30.5656 101.688 31.4752C100.8 32.365 100.355 33.4922 100.355 34.8566C100.355 36.221 100.8 37.358 101.688 38.2677Z" fill="#054A91"/>
<path d="M133.994 27.0557C135.672 27.0557 137.025 27.5994 138.051 28.687C139.078 29.7746 139.591 31.2379 139.591 33.0769V42.2719H136.393V33.2845C136.393 32.2563 136.136 31.4653 135.623 30.9116C135.11 30.3382 134.409 30.0515 133.52 30.0515C132.533 30.0515 131.743 30.3777 131.151 31.0303C130.578 31.6828 130.292 32.6617 130.292 33.9668V42.2719H127.094V33.2845C127.094 32.2563 126.847 31.4653 126.353 30.9116C125.88 30.3382 125.199 30.0515 124.31 30.0515C123.343 30.0515 122.553 30.3876 121.941 31.0599C121.329 31.7125 121.023 32.6814 121.023 33.9668V42.2719H117.824V27.4413H121.023V29.2209C121.971 27.7774 123.382 27.0557 125.258 27.0557C127.153 27.0557 128.555 27.8367 129.463 29.3989C130.45 27.8367 131.961 27.0557 133.994 27.0557Z" fill="#054A91"/>
<path d="M151.188 42.6575C149.016 42.6575 147.17 41.9061 145.65 40.4033C144.13 38.9004 143.37 37.0515 143.37 34.8566C143.37 32.6617 144.13 30.8128 145.65 29.3099C147.17 27.8071 149.016 27.0557 151.188 27.0557C153.379 27.0557 155.225 27.8071 156.726 29.3099C158.246 30.8128 159.006 32.6617 159.006 34.8566C159.006 37.0515 158.246 38.9004 156.726 40.4033C155.225 41.9061 153.379 42.6575 151.188 42.6575ZM147.901 38.2083C148.789 39.0982 149.885 39.5431 151.188 39.5431C152.491 39.5431 153.587 39.0982 154.475 38.2083C155.363 37.3185 155.808 36.2012 155.808 34.8566C155.808 33.5119 155.363 32.3947 154.475 31.5049C153.587 30.615 152.491 30.1701 151.188 30.1701C149.885 30.1701 148.789 30.615 147.901 31.5049C147.012 32.3947 146.568 33.5119 146.568 34.8566C146.568 36.2012 147.012 37.3185 147.901 38.2083Z" fill="#054A91"/>
<path d="M165.666 31.5345C165.666 32.0289 165.933 32.4244 166.466 32.721C167.018 32.9978 167.68 33.245 168.45 33.4625C169.24 33.6603 170.029 33.8975 170.819 34.1744C171.609 34.4512 172.27 34.9258 172.803 35.5981C173.356 36.2507 173.632 37.0812 173.632 38.0897C173.632 39.5134 173.08 40.6307 171.974 41.4414C170.888 42.2522 169.516 42.6575 167.858 42.6575C166.397 42.6575 165.143 42.351 164.097 41.738C163.05 41.125 162.29 40.2747 161.816 39.1872L164.57 37.5854C165.084 39.0092 166.179 39.7211 167.858 39.7211C169.536 39.7211 170.375 39.1674 170.375 38.06C170.375 37.5854 170.098 37.1998 169.546 36.9032C169.013 36.6066 168.351 36.3594 167.561 36.1617C166.791 35.9442 166.012 35.697 165.222 35.4202C164.432 35.1433 163.761 34.6885 163.208 34.0557C162.675 33.4032 162.409 32.5826 162.409 31.5938C162.409 30.2294 162.922 29.1319 163.948 28.3014C164.995 27.4709 166.288 27.0557 167.828 27.0557C169.052 27.0557 170.138 27.3325 171.086 27.8862C172.053 28.4201 172.793 29.1715 173.307 30.1404L170.612 31.6532C170.098 30.526 169.17 29.9625 167.828 29.9625C167.216 29.9625 166.703 30.1009 166.288 30.3777C165.873 30.6348 165.666 31.0204 165.666 31.5345Z" fill="#054A91"/>
<path d="M184.242 42.6575C182.07 42.6575 180.224 41.9061 178.704 40.4033C177.183 38.9004 176.423 37.0515 176.423 34.8566C176.423 32.6617 177.183 30.8128 178.704 29.3099C180.224 27.8071 182.07 27.0557 184.242 27.0557C186.433 27.0557 188.279 27.8071 189.78 29.3099C191.3 30.8128 192.06 32.6617 192.06 34.8566C192.06 37.0515 191.3 38.9004 189.78 40.4033C188.279 41.9061 186.433 42.6575 184.242 42.6575ZM180.954 38.2083C181.843 39.0982 182.939 39.5431 184.242 39.5431C185.545 39.5431 186.64 39.0982 187.529 38.2083C188.417 37.3185 188.861 36.2012 188.861 34.8566C188.861 33.5119 188.417 32.3947 187.529 31.5049C186.64 30.615 185.545 30.1701 184.242 30.1701C182.939 30.1701 181.843 30.615 180.954 31.5049C180.066 32.3947 179.622 33.5119 179.622 34.8566C179.622 36.2012 180.066 37.3185 180.954 38.2083Z" fill="#054A91"/>
<path d="M203.375 24.2082C201.045 23.9906 199.88 24.9695 199.88 27.1446V27.4413H203.375V30.526H199.88V42.2719H196.682V30.526H194.431V27.4413H196.682V27.1446C196.682 25.1079 197.245 23.5655 198.37 22.5175C199.515 21.4497 201.183 20.985 203.375 21.1234V24.2082Z" fill="#054A91"/>
<path d="M215.214 30.526H211.542V37.6448C211.542 38.2578 211.68 38.7027 211.956 38.9795C212.233 39.2366 212.638 39.3849 213.171 39.4244C213.723 39.4442 214.405 39.4343 215.214 39.3948V42.2719C212.766 42.5686 211.009 42.3609 209.943 41.6491C208.876 40.9174 208.343 39.5826 208.343 37.6448V30.526H205.619V27.4413H208.343V24.2378L211.542 23.2887V27.4413H215.214V30.526Z" fill="#054A91"/>
<path fill-rule="evenodd" clip-rule="evenodd" d="M220.108 23.1276C222.421 23.1276 224.297 21.2561 224.297 18.9476C224.297 16.639 222.421 14.7676 220.108 14.7676C217.794 14.7676 215.918 16.639 215.918 18.9476C215.918 21.2561 217.794 23.1276 220.108 23.1276ZM220.108 23.8288C222.81 23.8288 225 21.6434 225 18.9476C225 16.2518 222.81 14.0664 220.108 14.0664C217.406 14.0664 215.215 16.2518 215.215 18.9476C215.215 21.6434 217.406 23.8288 220.108 23.8288Z" fill="#054A91"/>
<path d="M221.078 20.7467L220.106 19.0882H219.085V20.7467H218.509V16.4146H220.242C220.613 16.4146 220.931 16.5467 221.195 16.8107C221.459 17.0706 221.591 17.3863 221.591 17.7576C221.591 18.0381 221.507 18.2939 221.338 18.525C221.172 18.756 220.958 18.919 220.694 19.0139L221.715 20.7467H221.078ZM219.085 16.9531V18.5683H220.242C220.457 18.5683 220.638 18.4899 220.787 18.3331C220.939 18.1722 221.016 17.9804 221.016 17.7576C221.016 17.5348 220.939 17.345 220.787 17.1882C220.638 17.0314 220.457 16.9531 220.242 16.9531H219.085Z" fill="#054A91"/>
</svg>
