<svg width="23" height="24" viewBox="0 0 23 24" fill="none" xmlns="http://www.w3.org/2000/svg">
<path d="M11.1433 3.52694C10.6395 3.52694 10.2306 3.12816 10.2306 2.63682V1.7467C10.2306 1.25535 10.6395 0.856575 11.1433 0.856575C11.647 0.856575 12.0559 1.25535 12.0559 1.7467V2.63682C12.0559 3.12816 11.647 3.52694 11.1433 3.52694Z" fill="white"/>
<path d="M19.1074 11.2956C18.6037 11.2956 18.1948 10.8968 18.1948 10.4055C18.1948 6.788 15.1831 3.70552 11.4815 3.53461C7.7753 3.36771 4.47112 6.15157 4.12204 9.7481C4.10105 9.96306 4.09055 10.1838 4.09055 10.4055C4.09055 10.8968 3.68169 11.2956 3.17792 11.2956C2.67415 11.2956 2.26529 10.8968 2.26529 10.4055C2.26529 10.1277 2.27852 9.85002 2.30499 9.58031C2.74442 5.05138 6.90465 1.54252 11.5677 1.7566C16.2285 1.97156 20.0201 5.8516 20.0201 10.4055C20.0201 10.8972 19.6112 11.2956 19.1074 11.2956Z" fill="white"/>
<path d="M20.8187 17.3669C20.5938 17.3669 20.3679 17.2859 20.1913 17.1235C18.9227 15.9521 18.1949 14.3027 18.1949 12.5986C18.1949 12.1072 18.6038 11.7084 19.1075 11.7084C19.6113 11.7084 20.0202 12.1072 20.0202 12.5986C20.0202 13.8158 20.5399 14.9943 21.4462 15.8306C21.8121 16.1684 21.8281 16.7318 21.4818 17.0892C21.3024 17.2735 21.0606 17.3669 20.8187 17.3669Z" fill="white"/>
<path d="M1.46702 17.3669C1.22471 17.3669 0.983323 17.2739 0.803991 17.0888C0.457647 16.7318 0.473618 16.1684 0.839583 15.8306C1.74583 14.9943 2.26557 13.8163 2.26557 12.5986C2.26557 12.1072 2.67443 11.7084 3.1782 11.7084C3.68197 11.7084 4.09083 12.1072 4.09083 12.5986C4.09083 14.3036 3.36301 15.953 2.09445 17.1235C1.9174 17.2859 1.69198 17.3669 1.46702 17.3669Z" fill="white"/>
<path d="M11.1433 23.9999C8.67003 23.9999 6.58011 21.9615 6.58011 19.5493C6.58011 19.058 6.98897 18.6592 7.49274 18.6592C7.99651 18.6592 8.40537 19.058 8.40537 19.5493C8.40537 20.9967 9.65932 22.2197 11.1433 22.2197C12.6272 22.2197 13.8812 20.9967 13.8812 19.5493C13.8812 19.058 14.29 18.6592 14.7938 18.6592C15.2976 18.6592 15.7064 19.058 15.7064 19.5493C15.7064 21.9615 13.6165 23.9999 11.1433 23.9999Z" fill="white"/>
<path d="M2.72155 20.4392C1.60951 20.4392 0.620223 19.7761 0.200869 18.7498C-0.218941 17.7221 0.0315759 16.5761 0.839254 15.8302C1.20522 15.492 1.78246 15.5075 2.12971 15.8645C2.47606 16.2214 2.46054 16.7849 2.09458 17.1231C1.69484 17.4925 1.84178 17.9576 1.89654 18.0911C1.95084 18.2237 2.17124 18.659 2.72155 18.659C3.22532 18.659 3.63418 19.0578 3.63418 19.5491C3.63418 20.0405 3.22578 20.4392 2.72155 20.4392Z" fill="white"/>
<path d="M19.5646 20.4397C19.0608 20.4397 18.6519 20.0409 18.6519 19.5496C18.6519 19.0582 19.0608 18.6595 19.5646 18.6595C20.1153 18.6595 20.3362 18.2224 20.391 18.0884C20.4453 17.9554 20.5917 17.4921 20.192 17.1231C19.826 16.7849 19.8101 16.2219 20.1564 15.8645C20.5032 15.5076 21.0804 15.492 21.4469 15.8298C22.2545 16.5757 22.5055 17.7208 22.0866 18.7467C21.6668 19.7752 20.6766 20.4397 19.5646 20.4397Z" fill="white"/>
<path d="M3.17792 13.4884C2.67415 13.4884 2.26529 13.0897 2.26529 12.5983V10.4059C2.26529 9.9146 2.67415 9.51582 3.17792 9.51582C3.6817 9.51582 4.09056 9.9146 4.09056 10.4059V12.5983C4.09056 13.0897 3.68215 13.4884 3.17792 13.4884Z" fill="white"/>
<path d="M19.1075 13.4884C18.6038 13.4884 18.1949 13.0897 18.1949 12.5983V10.4059C18.1949 9.9146 18.6038 9.51582 19.1075 9.51582C19.6113 9.51582 20.0202 9.9146 20.0202 10.4059V12.5983C20.0202 13.0897 19.6113 13.4884 19.1075 13.4884Z" fill="white"/>
<path d="M19.5646 20.4392H2.72205C2.21828 20.4392 1.80942 20.0404 1.80942 19.5491C1.80942 19.0578 2.21828 18.659 2.72205 18.659H19.5642C20.068 18.659 20.4768 19.0578 20.4768 19.5491C20.4768 20.0404 20.0684 20.4392 19.5646 20.4392Z" fill="white"/>
</svg>
