<svg width="25" height="24" viewBox="0 0 25 24" fill="none" xmlns="http://www.w3.org/2000/svg">
<path d="M12.6166 12.754C12.549 12.7443 12.462 12.7443 12.3847 12.754C10.6842 12.696 9.33151 11.3047 9.33151 9.59447C9.33151 7.84562 10.7422 6.42529 12.5007 6.42529C14.2495 6.42529 15.6699 7.84562 15.6699 9.59447C15.6602 11.3047 14.3172 12.696 12.6166 12.754Z" stroke="#777777" stroke-width="1.5" stroke-linecap="round" stroke-linejoin="round"/>
<path d="M19.012 19.1291C17.2922 20.704 15.0119 21.6606 12.4998 21.6606C9.98763 21.6606 7.70737 20.704 5.98752 19.1291C6.08414 18.2208 6.66387 17.3319 7.69771 16.6363C10.3451 14.8778 14.6738 14.8778 17.3018 16.6363C18.3357 17.3319 18.9154 18.2208 19.012 19.1291Z" stroke="#777777" stroke-width="1.5" stroke-linecap="round" stroke-linejoin="round"/>
<path d="M12.5 21.6621C17.8362 21.6621 22.1621 17.3362 22.1621 12C22.1621 6.66376 17.8362 2.33789 12.5 2.33789C7.16376 2.33789 2.83789 6.66376 2.83789 12C2.83789 17.3362 7.16376 21.6621 12.5 21.6621Z" stroke="#777777" stroke-width="1.5" stroke-linecap="round" stroke-linejoin="round"/>
</svg>
