<svg width="24" height="24" viewBox="0 0 24 24" fill="none" xmlns="http://www.w3.org/2000/svg">
<path d="M12 1C5.95819 1 1 5.95819 1 12C1 15.3563 2.56312 18.3614 4.94722 20.3729C5.07236 19.009 5.57953 17.7068 6.44602 16.6163C7.80048 14.9118 9.82471 13.9336 12 13.9336C9.51251 13.9336 7.48828 11.9094 7.48828 9.42188C7.48828 6.93439 9.51251 4.91016 12 4.91016C14.4875 4.91016 16.5117 6.93439 16.5117 9.42188C16.5117 11.9094 14.4875 13.9336 12 13.9336C14.32 13.9336 16.4972 15.0723 17.8235 16.9787C18.5351 18.0017 18.9423 19.1648 19.0514 20.3741C21.4363 18.3626 23 15.3569 23 12C23 5.95819 18.0418 1 12 1Z" fill="#054A91"/>
<path d="M12 6.19922C10.2232 6.19922 8.77734 7.64512 8.77734 9.42188C8.77734 11.1986 10.2232 12.6445 12 12.6445C13.7768 12.6445 15.2227 11.1986 15.2227 9.42188C15.2227 7.64512 13.7768 6.19922 12 6.19922Z" fill="#054A91"/>
<path d="M12 15.2227C10.22 15.2227 8.5633 16.0227 7.45484 17.4181C6.5811 18.5189 6.15638 19.8854 6.21519 21.2881C7.89648 22.3392 9.87519 23 12 23C14.1241 23 16.1023 22.3396 17.7833 21.2892C17.8392 20.013 17.5003 18.7711 16.7654 17.7151C15.6797 16.1543 13.8984 15.2227 12 15.2227Z" fill="#054A91"/>
</svg>
