<svg width="22" height="22" viewBox="0 0 22 22" fill="none" xmlns="http://www.w3.org/2000/svg">
<path d="M20.741 19.5719L15.9337 14.7625C17.3033 13.0902 17.9777 10.955 17.8174 8.79894C17.657 6.64291 16.6742 4.63108 15.0724 3.17984C13.4705 1.72861 11.3723 0.949073 9.21188 1.00258C7.05148 1.05609 4.99435 1.93855 3.46625 3.46731C1.93814 4.99607 1.05607 7.05409 1.00258 9.21542C0.949095 11.3768 1.72829 13.4759 3.1789 15.0785C4.62951 16.681 6.64047 17.6642 8.79558 17.8246C10.9507 17.985 13.0849 17.3103 14.7566 15.9402L19.5639 20.7409C19.6405 20.8215 19.7324 20.8859 19.8342 20.9304C19.936 20.9749 20.0457 20.9985 20.1568 20.9999C20.268 21.0013 20.3782 20.9805 20.4811 20.9386C20.5841 20.8967 20.6776 20.8346 20.7561 20.756C20.8347 20.6774 20.8968 20.5839 20.9386 20.4809C20.9805 20.378 21.0013 20.2676 20.9999 20.1565C20.9985 20.0453 20.9749 19.9356 20.9304 19.8337C20.886 19.7318 20.8216 19.6399 20.741 19.5633V19.5719ZM9.41644 16.171C8.08185 16.17 6.77751 15.7733 5.6683 15.0308C4.55909 14.2884 3.69481 13.2336 3.18473 11.9998C2.67466 10.766 2.54168 9.4086 2.80261 8.09921C3.06355 6.78982 3.70668 5.58722 4.6507 4.64345C5.59472 3.69968 6.79725 3.05711 8.10625 2.79698C9.41526 2.53684 10.772 2.67083 12.0049 3.18198C13.2378 3.69314 14.2915 4.55853 15.0329 5.66873C15.7742 6.77894 16.1699 8.08413 16.1699 9.41928C16.1699 10.3063 15.9952 11.1847 15.6558 12.0041C15.3163 12.8236 14.8188 13.5681 14.1916 14.1951C13.5644 14.8221 12.8199 15.3194 12.0005 15.6584C11.1812 15.9974 10.3031 16.1716 9.41644 16.171Z" fill="white" stroke="white" stroke-width="0.25"/>
</svg>
